if (_typeface_js && _typeface_js.loadFace) _typeface_js.loadFace({"glyphs":{"0":{"ha":1029,"x_min":0,"x_max":0,"o":"m 518 225 b 672 479 629 225 672 307 l 672 515 b 515 769 672 689 626 769 b 357 517 403 769 357 689 l 357 478 b 518 225 357 304 403 225 m 508 -18 b 44 476 222 -18 44 160 l 44 515 b 514 1008 44 833 249 1008 b 985 522 778 1008 985 851 l 985 485 b 508 -18 985 165 799 -18 "},"1":{"ha":638,"x_min":0,"x_max":0,"o":"m 226 683 l 43 574 l 43 835 l 271 993 l 542 993 l 542 0 l 226 0 "},"2":{"ha":869,"x_min":0,"x_max":0,"o":"m 10 43 l 347 401 b 514 674 447 508 514 592 b 424 772 514 731 486 772 b 308 622 360 772 321 732 l 25 622 b 439 1008 33 881 190 1008 b 824 688 692 1008 824 874 b 639 343 824 547 749 449 l 525 233 l 832 233 l 832 0 l 10 0 "},"3":{"ha":918,"x_min":0,"x_max":0,"o":"m 463 -18 b 36 333 175 -18 46 110 l 315 333 b 443 207 322 257 356 207 b 556 307 519 207 556 243 b 439 408 556 374 519 408 l 360 408 l 360 599 l 435 599 b 556 699 517 599 556 635 b 456 785 556 750 522 785 b 339 668 388 785 350 743 l 61 668 b 464 1008 75 872 206 1008 b 850 733 706 1008 850 903 b 679 519 850 622 786 550 b 874 299 794 499 874 417 b 463 -18 874 108 733 -18 "},"4":{"ha":957,"x_min":0,"x_max":0,"o":"m 500 186 l 19 186 l 19 306 l 428 993 l 803 993 l 803 401 l 928 401 l 928 186 l 803 186 l 803 0 l 500 0 m 508 401 l 508 756 l 308 401 "},"5":{"ha":888,"x_min":0,"x_max":0,"o":"m 432 -18 b 32 319 160 -18 36 129 l 317 319 b 431 218 325 258 349 218 b 531 340 503 218 531 274 b 411 465 531 419 489 465 b 260 399 336 465 288 435 l 67 399 l 92 993 l 782 993 l 782 765 l 317 765 l 310 563 b 547 674 347 618 418 674 b 846 335 729 674 846 553 b 432 -18 846 122 694 -18 "},"6":{"ha":951,"x_min":0,"x_max":0,"o":"m 497 -18 b 44 475 172 -18 44 185 l 44 501 b 500 1008 44 819 243 1008 b 893 704 736 1008 872 906 l 604 704 b 514 776 597 746 578 776 b 356 539 413 776 361 692 b 583 651 400 606 458 651 b 914 333 761 651 914 549 b 497 -18 914 124 756 -18 m 492 203 b 608 332 564 203 608 258 b 493 458 608 404 565 458 b 375 332 421 458 375 403 b 492 203 375 258 419 203 "},"7":{"ha":814,"x_min":0,"x_max":0,"o":"m 413 738 l 32 738 l 32 993 l 806 993 l 806 961 l 467 0 l 146 0 "},"8":{"ha":925,"x_min":0,"x_max":0,"o":"m 463 -18 b 35 279 196 -18 35 88 b 215 522 35 390 94 479 b 76 725 129 560 76 625 b 465 1008 76 907 251 1008 b 853 728 688 1008 853 908 b 714 524 853 626 799 561 b 890 288 833 482 890 397 b 463 -18 890 97 729 -18 m 464 201 b 583 314 535 201 583 244 b 464 428 583 382 536 428 b 343 314 393 428 343 386 b 464 201 343 244 393 201 m 465 599 b 572 699 525 599 572 638 b 465 799 572 760 524 799 b 360 699 408 799 360 760 b 465 599 360 639 408 599 "},"9":{"ha":951,"x_min":0,"x_max":0,"o":"m 454 -17 b 51 288 213 -17 69 92 l 339 288 b 438 215 346 246 372 215 b 594 450 549 215 590 297 b 375 336 551 385 499 336 b 38 656 185 336 38 440 b 457 1010 38 865 197 1010 b 907 515 765 1010 907 801 l 907 488 b 454 -17 907 167 746 -17 m 453 535 b 572 660 525 535 572 589 b 453 789 572 733 526 789 b 336 660 382 789 336 733 b 453 535 336 589 381 535 "},"Ð":{"ha":1090,"x_min":0,"x_max":0,"o":"m 40 604 l 115 604 l 115 993 l 494 993 b 1032 508 850 993 1032 824 l 1032 499 b 494 0 1032 182 846 0 l 115 0 l 115 394 l 40 394 m 485 242 b 703 492 639 242 703 318 l 703 503 b 482 751 703 685 635 751 l 425 751 l 425 604 l 569 604 l 569 394 l 425 394 l 425 242 "},"ð":{"ha":871,"x_min":0,"x_max":0,"o":"m 140 858 l 294 910 b 125 1040 236 960 176 1004 l 433 1040 b 517 985 460 1025 488 1006 l 671 1038 l 703 951 l 601 917 b 839 424 725 806 839 642 l 839 393 b 429 -18 839 138 676 -18 b 29 367 203 -18 29 119 l 29 383 b 350 735 29 611 196 735 b 496 675 421 735 456 715 b 371 839 467 732 422 788 l 172 772 m 436 183 b 561 358 519 183 561 246 l 561 369 b 436 544 561 483 521 544 b 308 374 353 544 308 488 l 308 363 b 436 183 308 244 349 183 "},"Ł":{"ha":833,"x_min":0,"x_max":0,"o":"m 31 472 l 115 501 l 115 993 l 432 993 l 432 610 l 676 694 l 676 533 l 432 449 l 432 243 l 793 243 l 793 0 l 115 0 l 115 340 l 31 311 "},"ł":{"ha":478,"x_min":0,"x_max":0,"o":"m 22 522 l 103 560 l 103 1042 l 375 1042 l 375 686 l 460 726 l 460 556 l 375 515 l 375 0 l 103 0 l 103 388 l 22 350 "},"Š":{"ha":907,"x_min":0,"x_max":0,"o":"m 178 1258 l 375 1258 l 450 1193 l 525 1258 l 718 1258 l 558 1051 l 331 1051 m 464 -18 b 26 318 183 -18 33 94 l 325 318 b 464 204 331 256 361 204 b 574 286 538 204 574 238 b 432 371 574 339 539 356 b 49 690 146 403 49 486 b 446 1007 49 874 199 1007 b 846 690 692 1007 829 907 l 554 690 b 446 786 547 751 513 786 b 347 714 381 786 347 757 b 486 631 347 667 376 644 b 875 319 736 604 875 540 b 464 -18 875 135 731 -18 "},"š":{"ha":726,"x_min":0,"x_max":0,"o":"m 86 1036 l 276 1036 l 354 964 l 432 1036 l 618 1036 l 444 806 l 253 806 m 363 -18 b 21 233 150 -18 25 69 l 271 233 b 361 158 279 186 299 158 b 438 210 414 158 438 179 b 310 271 438 242 407 258 b 28 501 114 293 28 346 b 351 747 28 668 174 747 b 683 507 540 747 667 685 l 438 507 b 356 575 429 550 406 575 b 283 525 306 575 283 553 b 397 469 283 492 317 478 b 704 238 607 444 704 394 b 363 -18 704 58 568 -18 "},"Ý":{"ha":961,"x_min":0,"x_max":0,"o":"m 329 424 l 7 993 l 349 993 l 500 682 l 653 993 l 954 993 l 646 425 l 646 0 l 329 0 m 446 1258 l 725 1258 l 582 1051 l 375 1051 "},"ý":{"ha":833,"x_min":0,"x_max":0,"o":"m 297 72 l 7 726 l 303 726 l 440 364 l 568 726 l 826 726 l 439 -242 l 179 -242 m 400 1038 l 668 1038 l 524 803 l 328 803 "},"Þ":{"ha":922,"x_min":0,"x_max":0,"o":"m 90 993 l 404 993 l 404 835 l 486 835 b 894 510 772 835 894 725 l 894 504 b 500 181 894 297 757 181 l 404 181 l 404 0 l 90 0 m 469 392 b 596 503 553 392 596 429 l 596 508 b 471 614 596 583 553 614 l 404 614 l 404 392 "},"þ":{"ha":897,"x_min":0,"x_max":0,"o":"m 65 1042 l 339 1042 l 339 621 b 561 746 379 689 451 746 b 865 368 726 746 865 622 l 865 357 b 560 -18 865 103 725 -18 b 339 104 453 -18 375 33 l 339 -242 l 65 -242 m 460 190 b 588 360 542 190 588 249 l 588 371 b 458 543 588 488 540 543 b 332 371 378 543 332 482 l 332 360 b 460 190 332 247 376 190 "},"Ž":{"ha":871,"x_min":0,"x_max":0,"o":"m 172 1258 l 369 1258 l 444 1193 l 519 1258 l 713 1258 l 553 1051 l 325 1051 m 14 33 l 411 757 l 69 757 l 69 993 l 851 993 l 851 960 l 458 238 l 828 238 l 828 0 l 14 0 "},"ž":{"ha":713,"x_min":0,"x_max":0,"o":"m 97 1036 l 288 1036 l 365 964 l 443 1036 l 629 1036 l 456 806 l 264 806 m 11 26 l 308 522 l 43 522 l 43 726 l 697 726 l 697 699 l 386 203 l 678 203 l 678 0 l 11 0 "},"½":{"ha":1154,"x_min":0,"x_max":0,"o":"m 868 993 l 1006 993 l 215 0 l 76 0 m 146 800 l 31 738 l 31 899 l 175 993 l 347 993 l 347 463 l 146 463 m 646 25 l 825 208 b 922 351 885 269 922 311 b 883 392 922 376 911 392 b 833 322 856 392 839 369 l 651 322 b 894 538 656 465 749 538 b 1118 367 1049 538 1118 463 b 1010 179 1118 293 1072 238 l 971 142 l 1121 142 l 1121 0 l 646 0 "},"¼":{"ha":1135,"x_min":0,"x_max":0,"o":"m 146 800 l 31 738 l 31 899 l 175 993 l 347 993 l 347 463 l 146 463 m 886 993 l 1024 993 l 233 0 l 94 0 m 842 97 l 578 97 l 578 171 l 796 531 l 1035 531 l 1035 228 l 1101 228 l 1101 97 l 1035 97 l 1035 0 l 842 0 m 847 228 l 847 400 l 747 228 "},"¹":{"ha":413,"x_min":0,"x_max":0,"o":"m 142 800 l 26 738 l 26 899 l 171 993 l 343 993 l 343 463 l 142 463 "},"¾":{"ha":1183,"x_min":0,"x_max":0,"o":"m 272 453 b 28 643 97 453 33 533 l 204 643 b 260 590 207 614 224 590 b 307 633 290 590 307 607 b 250 674 307 660 290 674 l 207 674 l 207 783 l 250 783 b 310 826 292 783 310 799 b 267 864 310 850 296 864 b 214 815 239 864 219 847 l 39 815 b 272 1001 47 922 122 1001 b 497 853 414 1001 497 947 b 401 739 497 793 463 754 b 508 625 464 729 508 686 b 272 453 508 524 432 453 m 956 993 l 1093 993 l 303 0 l 164 0 m 889 97 l 625 97 l 625 171 l 843 531 l 1082 531 l 1082 228 l 1149 228 l 1149 97 l 1082 97 l 1082 0 l 889 0 m 894 228 l 894 400 l 794 228 "},"³":{"ha":535,"x_min":0,"x_max":0,"o":"m 268 453 b 24 643 93 453 29 533 l 200 643 b 256 590 203 614 219 590 b 303 633 286 590 303 607 b 246 674 303 660 286 674 l 203 674 l 203 783 l 246 783 b 306 826 288 783 306 799 b 263 864 306 850 292 864 b 210 815 235 864 215 847 l 35 815 b 268 1001 43 922 118 1001 b 493 853 410 1001 493 947 b 397 739 493 793 458 754 b 504 625 460 729 504 686 b 268 453 504 524 428 453 "},"²":{"ha":508,"x_min":0,"x_max":0,"o":"m 6 488 l 185 671 b 282 814 244 732 282 774 b 243 856 282 839 271 856 b 193 785 215 856 199 833 l 11 785 b 254 1001 15 928 108 1001 b 478 829 408 1001 478 925 b 369 642 478 756 432 701 l 331 606 l 481 606 l 481 463 l 6 463 "},"¦":{"ha":378,"x_min":0,"x_max":0,"o":"m 93 419 l 282 419 l 282 -206 l 93 -206 m 93 1078 l 282 1078 l 282 518 l 93 518 "},"−":{"ha":808,"x_min":0,"x_max":0,"o":"m 53 575 l 757 575 l 757 368 l 53 368 "},"×":{"ha":818,"x_min":0,"x_max":0,"o":"m 56 257 l 267 468 l 51 682 l 194 826 l 408 610 l 621 821 l 763 679 l 551 468 l 767 254 l 622 110 l 408 326 l 197 115 "}," ":{"ha":257,"x_min":0,"x_max":0,"o":""},"!":{"ha":475,"x_min":0,"x_max":0,"o":"m 238 -17 b 79 129 150 -17 79 49 b 238 276 79 211 150 276 b 397 129 325 276 397 211 b 238 -17 397 49 325 -17 m 85 993 l 392 993 l 351 335 l 124 335 "},"\"":{"ha":664,"x_min":0,"x_max":0,"o":"m 51 993 l 306 993 l 275 603 l 82 603 m 358 993 l 613 993 l 582 603 l 389 603 "},"#":{"ha":818,"x_min":0,"x_max":0,"o":"m 408 325 l 329 325 l 301 138 l 121 138 l 149 325 l 57 325 l 57 539 l 181 539 l 193 629 l 89 629 l 89 832 l 224 832 l 249 993 l 429 993 l 404 832 l 482 832 l 507 993 l 689 993 l 664 832 l 761 832 l 761 629 l 633 629 l 621 539 l 729 539 l 729 325 l 589 325 l 561 138 l 381 138 m 361 539 l 439 539 l 453 629 l 374 629 "},"$":{"ha":904,"x_min":0,"x_max":0,"o":"m 401 -14 b 28 315 160 3 36 128 l 304 315 b 401 197 310 257 336 213 l 401 378 b 47 694 147 413 47 500 b 401 1006 47 868 181 990 l 401 1129 l 514 1129 l 514 1004 b 860 699 721 988 844 894 l 589 699 b 514 793 583 746 565 779 l 514 622 b 874 319 729 593 874 522 b 514 -14 874 146 765 3 l 514 -187 l 401 -187 m 315 718 b 401 638 315 674 338 651 l 401 797 b 315 718 344 788 315 758 m 597 282 b 514 358 597 322 576 343 l 514 194 b 597 282 571 207 597 239 "},"%":{"ha":1160,"x_min":0,"x_max":0,"o":"m 303 656 b 375 756 350 656 375 694 b 303 854 375 817 350 854 b 229 757 256 854 229 817 b 303 656 229 693 256 656 m 301 500 b 32 756 129 500 32 611 b 303 1004 32 897 147 1004 b 571 760 456 1004 571 904 b 301 500 571 614 469 500 m 864 993 l 1006 993 l 300 0 l 160 0 m 858 138 b 931 238 906 138 931 176 b 858 336 931 299 906 336 b 785 239 811 336 785 299 b 858 138 785 175 811 138 m 857 -18 b 589 238 685 -18 589 93 b 858 486 589 379 703 486 b 1128 242 1013 486 1128 386 b 857 -18 1128 96 1025 -18 "},"&":{"ha":1079,"x_min":0,"x_max":0,"o":"m 901 203 l 1067 0 l 713 0 l 661 64 b 394 -18 599 18 525 -18 b 39 288 178 -18 39 93 b 256 574 39 410 114 507 b 200 742 215 633 200 697 b 535 1007 200 914 350 1007 b 847 771 700 1007 847 928 b 650 526 847 664 786 585 l 760 392 l 824 518 l 1061 518 m 446 201 b 525 232 478 201 504 213 l 379 408 b 329 317 353 389 329 363 b 446 201 329 251 367 201 m 465 738 b 519 636 465 704 486 672 b 608 744 578 665 608 700 b 540 817 608 788 582 817 b 465 738 497 817 465 786 "},"'":{"ha":367,"x_min":0,"x_max":0,"o":"m 51 993 l 315 993 l 285 603 l 82 603 "},"(":{"ha":503,"x_min":0,"x_max":0,"o":"m 281 -206 b 49 436 176 -81 49 119 b 281 1076 49 751 176 951 l 489 1076 b 308 436 403 938 308 726 b 489 -206 308 144 403 -67 l 281 -206 "},")":{"ha":503,"x_min":0,"x_max":0,"o":"m 14 -204 b 194 436 100 -65 194 146 b 14 1078 194 728 100 939 l 222 1078 b 454 436 326 953 454 753 b 222 -204 454 121 326 -79 l 14 -204 "},"*":{"ha":617,"x_min":0,"x_max":0,"o":"m 72 619 l 197 739 l 36 753 l 88 939 l 238 864 l 201 1032 l 415 1032 l 379 864 l 529 939 l 579 753 l 418 739 l 543 619 l 381 504 l 307 663 l 235 504 "},"+":{"ha":804,"x_min":0,"x_max":0,"o":"m 293 374 l 53 374 l 53 571 l 293 571 l 293 833 l 511 833 l 511 571 l 753 571 l 753 374 l 511 374 l 511 110 l 293 110 "},",":{"ha":432,"x_min":0,"x_max":0,"o":"m 18 -110 l 131 268 l 383 181 l 178 -169 "},"-":{"ha":542,"x_min":0,"x_max":0,"o":"m 68 500 l 474 500 l 474 297 l 68 297 "},".":{"ha":419,"x_min":0,"x_max":0,"o":"m 208 -17 b 56 133 121 -17 56 49 b 208 282 56 215 121 282 b 364 133 297 282 364 215 b 208 -17 364 49 297 -17 "},"/":{"ha":611,"x_min":0,"x_max":0,"o":"m 406 1078 l 621 1078 l 174 -206 l -42 -206 "},":":{"ha":428,"x_min":0,"x_max":0,"o":"m 211 -17 b 60 133 124 -17 60 49 b 211 282 60 215 124 282 b 368 133 301 282 368 215 b 211 -17 368 49 301 -17 m 211 378 b 60 526 124 378 60 443 b 211 676 60 610 124 676 b 368 526 301 676 368 610 b 211 378 368 443 301 378 "},";":{"ha":453,"x_min":0,"x_max":0,"o":"m 11 -110 l 124 268 l 376 181 l 171 -169 m 247 378 b 94 526 160 378 94 443 b 247 676 94 610 160 676 b 403 526 336 676 403 610 b 247 378 403 443 336 378 "},"<":{"ha":714,"x_min":0,"x_max":0,"o":"m 56 422 l 56 474 l 650 822 l 650 575 l 404 450 l 650 313 l 650 74 "},"=":{"ha":792,"x_min":0,"x_max":0,"o":"m 53 407 l 738 407 l 738 225 l 53 225 m 53 683 l 738 683 l 738 501 l 53 501 "},">":{"ha":714,"x_min":0,"x_max":0,"o":"m 64 321 l 310 447 l 64 585 l 64 824 l 658 474 l 658 424 l 64 75 "},"?":{"ha":790,"x_min":0,"x_max":0,"o":"m 232 353 b 367 583 232 458 304 525 b 456 714 414 628 456 667 b 382 786 456 761 432 786 b 286 675 331 786 296 744 l 19 675 b 404 1008 26 894 183 1008 b 753 740 624 1008 753 914 b 658 536 753 651 711 590 b 492 347 588 467 507 413 l 492 335 l 232 335 m 363 -17 b 201 129 272 -17 201 49 b 363 276 201 211 272 276 b 521 129 450 276 521 211 b 363 -17 521 49 450 -17 "},"@":{"ha":1281,"x_min":0,"x_max":0,"o":"m 640 -222 b 36 347 264 -222 36 28 b 667 960 36 718 338 960 b 1244 454 996 960 1244 763 b 938 69 1244 176 1093 69 b 725 181 815 69 747 107 b 543 67 690 108 632 67 b 315 328 406 67 315 168 b 590 654 315 526 438 654 b 739 575 675 654 718 619 l 749 643 l 969 643 l 922 260 b 981 171 914 206 932 171 b 1131 458 1057 171 1131 253 b 669 863 1131 700 949 863 b 156 344 383 863 156 663 b 644 -125 156 78 321 -125 b 1007 0 808 -125 940 -67 l 1138 0 b 640 -222 1043 -135 854 -222 m 617 243 b 717 394 674 243 717 307 b 636 482 717 447 690 482 b 542 339 579 482 542 421 b 617 243 542 286 565 243 "},"A":{"ha":1056,"x_min":0,"x_max":0,"o":"m 325 993 l 732 993 l 1043 0 l 710 0 l 664 165 l 350 165 l 306 0 l 13 0 m 410 379 l 606 379 l 508 739 "},"B":{"ha":958,"x_min":0,"x_max":0,"o":"m 90 993 l 560 993 b 899 733 804 993 899 881 l 899 728 b 726 514 899 613 838 540 b 925 282 843 493 925 421 l 925 276 b 557 0 925 100 813 0 l 90 0 m 497 207 b 615 311 578 207 615 244 l 615 317 b 490 418 615 382 579 418 l 397 418 l 397 207 m 493 606 b 601 693 571 606 601 632 l 601 699 b 492 788 601 758 569 788 l 397 788 l 397 606 "},"C":{"ha":1061,"x_min":0,"x_max":0,"o":"m 567 -18 b 39 490 208 -18 39 186 l 39 501 b 553 1008 39 808 260 1008 b 1025 617 821 1008 1001 886 l 700 617 b 554 760 690 708 642 760 b 371 503 440 760 371 671 l 371 492 b 560 235 371 326 438 235 b 724 381 649 235 713 281 l 1038 381 b 567 -18 1021 119 829 -18 "},"D":{"ha":1043,"x_min":0,"x_max":0,"o":"m 458 242 b 678 492 613 242 678 318 l 678 503 b 457 751 678 685 610 751 l 406 751 l 406 242 m 90 993 l 469 993 b 1006 508 825 993 1006 824 l 1006 499 b 469 0 1006 182 819 0 l 90 0 "},"E":{"ha":861,"x_min":0,"x_max":0,"o":"m 90 993 l 796 993 l 796 751 l 404 751 l 404 611 l 715 611 l 715 390 l 404 390 l 404 242 l 818 242 l 818 0 l 90 0 "},"F":{"ha":813,"x_min":0,"x_max":0,"o":"m 90 993 l 778 993 l 778 750 l 406 750 l 406 565 l 706 565 l 706 333 l 406 333 l 406 0 l 90 0 "},"G":{"ha":1099,"x_min":0,"x_max":0,"o":"m 565 -18 b 38 490 222 -18 38 192 l 38 501 b 565 1008 38 806 264 1008 b 1038 633 807 1008 1021 899 l 726 633 b 567 761 715 715 664 761 b 365 496 442 761 365 664 l 365 485 b 575 221 365 339 414 221 b 754 347 700 221 747 282 l 585 347 l 585 554 l 1061 554 l 1061 426 b 565 -18 1061 179 899 -18 "},"H":{"ha":1103,"x_min":0,"x_max":0,"o":"m 90 993 l 406 993 l 406 626 l 697 626 l 697 993 l 1013 993 l 1013 0 l 697 0 l 697 382 l 406 382 l 406 0 l 90 0 "},"I":{"ha":508,"x_min":0,"x_max":0,"o":"m 94 993 l 413 993 l 413 0 l 94 0 "},"J":{"ha":679,"x_min":0,"x_max":0,"o":"m 233 -12 b 44 22 136 -12 86 1 l 44 254 b 163 236 76 244 108 236 b 288 365 236 236 288 268 l 288 993 l 603 993 l 603 364 b 233 -12 603 118 482 -12 "},"K":{"ha":1035,"x_min":0,"x_max":0,"o":"m 90 993 l 406 993 l 406 617 l 681 993 l 1007 993 l 658 535 l 1026 0 l 664 0 l 406 397 l 406 0 l 90 0 "},"L":{"ha":808,"x_min":0,"x_max":0,"o":"m 90 993 l 406 993 l 406 243 l 767 243 l 767 0 l 90 0 "},"M":{"ha":1331,"x_min":0,"x_max":0,"o":"m 90 993 l 499 993 l 667 511 l 838 993 l 1238 993 l 1238 0 l 925 0 l 925 586 l 699 0 l 593 0 l 371 586 l 371 0 l 90 0 "},"N":{"ha":1093,"x_min":0,"x_max":0,"o":"m 90 993 l 443 993 l 725 468 l 725 993 l 1001 993 l 1001 0 l 700 0 l 368 594 l 368 0 l 90 0 "},"O":{"ha":1139,"x_min":0,"x_max":0,"o":"m 571 229 b 774 492 694 229 774 326 l 774 503 b 568 763 774 671 693 763 b 367 503 446 763 367 672 l 367 492 b 571 229 367 322 446 229 m 563 -18 b 38 490 238 -18 38 189 l 38 501 b 568 1008 38 808 271 1008 b 1101 510 874 1008 1101 824 l 1101 499 b 563 -18 1101 189 889 -18 "},"P":{"ha":922,"x_min":0,"x_max":0,"o":"m 90 993 l 486 993 b 894 653 772 993 894 865 l 894 647 b 500 324 894 440 757 324 l 404 324 l 404 0 l 90 0 m 469 535 b 596 646 553 535 596 572 l 596 651 b 471 758 596 728 553 758 l 404 758 l 404 535 "},"Q":{"ha":1139,"x_min":0,"x_max":0,"o":"m 676 -8 b 563 -18 640 -14 601 -18 b 38 490 238 -18 38 189 l 38 501 b 568 1007 38 808 271 1007 b 1103 510 874 1007 1103 824 l 1103 499 b 919 93 1103 325 1036 183 l 1013 0 l 840 -175 m 365 492 b 490 238 365 356 413 269 l 643 374 l 719 294 b 774 493 754 340 774 407 l 774 504 b 568 763 774 672 693 763 b 365 503 444 763 365 674 l 365 492 "},"R":{"ha":986,"x_min":0,"x_max":0,"o":"m 90 993 l 496 993 b 911 671 769 993 911 883 l 911 665 b 743 406 911 528 842 450 l 969 0 l 639 0 l 454 340 l 404 340 l 404 0 l 90 0 m 478 543 b 607 651 565 543 607 579 l 607 657 b 479 757 607 729 564 757 l 404 757 l 404 543 "},"S":{"ha":907,"x_min":0,"x_max":0,"o":"m 464 -18 b 26 318 183 -18 33 94 l 325 318 b 464 204 331 256 361 204 b 574 286 538 204 574 238 b 432 371 574 339 539 356 b 49 690 146 403 49 486 b 446 1007 49 874 199 1007 b 846 690 692 1007 829 907 l 554 690 b 446 786 547 751 513 786 b 347 714 381 786 347 757 b 486 631 347 667 376 644 b 875 319 736 604 875 540 b 464 -18 875 135 731 -18 "},"T":{"ha":874,"x_min":0,"x_max":0,"o":"m 278 751 l 28 751 l 28 993 l 846 993 l 846 751 l 594 751 l 594 0 l 278 0 "},"U":{"ha":1078,"x_min":0,"x_max":0,"o":"m 539 -18 b 85 410 249 -18 85 126 l 85 993 l 399 993 l 399 422 b 539 229 399 293 426 229 b 678 424 650 229 678 293 l 678 993 l 994 993 l 994 413 b 539 -18 994 114 817 -18 "},"V":{"ha":1029,"x_min":0,"x_max":0,"o":"m 13 993 l 353 993 l 538 328 l 722 993 l 1017 993 l 696 0 l 340 0 "},"W":{"ha":1401,"x_min":0,"x_max":0,"o":"m 14 993 l 332 993 l 446 400 l 565 993 l 839 993 l 974 393 l 1094 993 l 1386 993 l 1156 0 l 838 0 l 699 593 l 558 0 l 244 0 "},"X":{"ha":1072,"x_min":0,"x_max":0,"o":"m 328 511 l 47 993 l 407 993 l 546 714 l 682 993 l 1004 993 l 744 522 l 1049 0 l 690 0 l 519 326 l 349 0 l 25 0 "},"Y":{"ha":961,"x_min":0,"x_max":0,"o":"m 329 424 l 7 993 l 349 993 l 500 682 l 653 993 l 954 993 l 646 425 l 646 0 l 329 0 "},"Z":{"ha":871,"x_min":0,"x_max":0,"o":"m 14 33 l 411 757 l 69 757 l 69 993 l 851 993 l 851 960 l 458 238 l 828 238 l 828 0 l 14 0 "},"[":{"ha":582,"x_min":0,"x_max":0,"o":"m 85 1078 l 531 1078 l 531 881 l 361 881 l 361 -8 l 531 -8 l 531 -206 l 85 -206 "},"\\":{"ha":611,"x_min":0,"x_max":0,"o":"m -10 1078 l 204 1078 l 653 -206 l 438 -206 "},"]":{"ha":582,"x_min":0,"x_max":0,"o":"m 53 -8 l 219 -8 l 219 881 l 53 881 l 53 1078 l 496 1078 l 496 -206 l 53 -206 "},"^":{"ha":743,"x_min":0,"x_max":0,"o":"m 254 993 l 489 993 l 717 543 l 486 543 l 369 772 l 251 543 l 26 543 "},"_":{"ha":613,"x_min":0,"x_max":0,"o":"m -1 -100 l 614 -100 l 614 -224 l -1 -224 "},"`":{"ha":556,"x_min":0,"x_max":0,"o":"m 44 1038 l 313 1038 l 385 803 l 189 803 "},"a":{"ha":813,"x_min":0,"x_max":0,"o":"m 275 -18 b 28 201 144 -18 28 46 b 418 439 28 372 167 439 l 481 439 l 481 451 b 396 557 481 513 469 557 b 310 479 333 557 314 517 l 54 479 b 413 747 65 657 204 747 b 751 469 624 747 751 661 l 751 0 l 488 0 l 488 83 b 275 -18 457 33 393 -18 m 374 165 b 481 254 436 165 481 200 l 481 292 l 422 292 b 297 222 331 292 297 274 b 374 165 297 188 324 165 "},"b":{"ha":897,"x_min":0,"x_max":0,"o":"m 560 -18 b 339 111 453 -18 375 33 l 339 0 l 65 0 l 65 1042 l 339 1042 l 339 621 b 561 746 379 689 451 746 b 865 368 726 746 865 622 l 865 357 b 560 -18 865 103 725 -18 m 460 190 b 588 360 542 190 588 249 l 588 371 b 458 543 588 488 540 543 b 332 371 378 543 332 482 l 332 360 b 460 190 332 247 376 190 "},"c":{"ha":814,"x_min":0,"x_max":0,"o":"m 417 -18 b 31 353 199 -18 31 106 l 31 364 b 424 746 31 611 206 746 b 788 440 606 746 774 668 l 531 440 b 431 536 522 499 497 536 b 308 369 350 536 308 481 l 308 358 b 435 181 308 240 347 181 b 546 290 497 181 539 219 l 792 290 b 417 -18 785 103 661 -18 "},"d":{"ha":896,"x_min":0,"x_max":0,"o":"m 335 -18 b 32 356 171 -18 32 100 l 32 367 b 335 746 32 619 169 746 b 557 626 449 746 517 700 l 557 1042 l 831 1042 l 831 0 l 557 0 l 557 117 b 335 -18 521 42 444 -18 m 436 190 b 564 361 518 190 564 249 l 564 372 b 438 543 564 482 519 543 b 310 371 354 543 310 488 l 310 360 b 436 190 310 247 356 190 "},"e":{"ha":839,"x_min":0,"x_max":0,"o":"m 432 -18 b 29 354 200 -18 29 114 l 29 365 b 432 747 29 601 210 747 b 810 369 636 747 810 631 l 810 303 l 306 303 b 442 168 313 215 364 168 b 556 246 518 168 547 204 l 811 246 b 432 -18 789 79 663 -18 m 546 446 b 432 571 543 524 506 571 b 307 446 365 571 318 528 "},"f":{"ha":546,"x_min":0,"x_max":0,"o":"m 104 543 l 15 543 l 15 726 l 104 726 l 104 781 b 403 1053 104 968 226 1053 b 521 1038 450 1053 486 1047 l 521 842 b 456 850 504 846 483 850 b 378 779 401 850 378 819 l 378 726 l 519 726 l 519 543 l 378 543 l 378 0 l 104 0 "},"g":{"ha":894,"x_min":0,"x_max":0,"o":"m 415 -269 b 26 6 164 -269 46 -167 l 297 6 b 417 -81 307 -39 332 -81 b 556 58 521 -81 556 -19 l 556 171 b 335 43 519 101 443 43 b 31 388 169 43 31 163 l 31 399 b 333 747 31 617 168 747 b 556 626 447 747 515 700 l 556 726 l 829 726 l 829 63 b 415 -269 829 -154 686 -269 m 436 238 b 564 388 517 238 564 296 l 564 397 b 436 544 564 486 518 544 b 308 396 353 544 308 488 l 308 385 b 436 238 308 296 353 238 "},"h":{"ha":874,"x_min":0,"x_max":0,"o":"m 65 1042 l 339 1042 l 339 610 b 579 746 379 686 457 746 b 813 478 717 746 813 658 l 813 0 l 539 0 l 539 417 b 447 528 539 490 513 528 b 339 401 379 528 339 488 l 339 0 l 65 0 "},"i":{"ha":421,"x_min":0,"x_max":0,"o":"m 74 726 l 346 726 l 346 0 l 74 0 m 210 781 b 61 918 125 781 61 839 b 210 1057 61 999 125 1057 b 357 918 293 1057 357 999 b 210 781 357 839 293 781 "},"j":{"ha":421,"x_min":0,"x_max":0,"o":"m -12 -58 b 72 22 46 -56 72 -33 l 72 726 l 346 726 l 346 15 b -12 -254 346 -146 269 -254 m 210 781 b 61 918 125 781 61 839 b 210 1057 61 999 125 1057 b 357 918 293 1057 357 999 b 210 781 357 839 293 781 "},"k":{"ha":818,"x_min":0,"x_max":0,"o":"m 65 1042 l 339 1042 l 339 451 l 515 726 l 796 726 l 572 401 l 814 0 l 511 0 l 339 303 l 339 0 l 65 0 "},"l":{"ha":417,"x_min":0,"x_max":0,"o":"m 72 1042 l 344 1042 l 344 0 l 72 0 "},"m":{"ha":1299,"x_min":0,"x_max":0,"o":"m 65 726 l 339 726 l 339 615 b 568 746 379 685 456 746 b 763 629 665 746 729 706 b 1001 746 826 711 911 746 b 1238 479 1140 746 1238 656 l 1238 0 l 965 0 l 965 429 b 883 526 965 493 933 526 b 788 417 822 526 788 486 l 788 0 l 517 0 l 517 429 b 436 526 517 493 483 526 b 339 417 374 526 339 486 l 339 0 l 65 0 "},"n":{"ha":874,"x_min":0,"x_max":0,"o":"m 65 726 l 339 726 l 339 610 b 579 746 379 686 457 746 b 813 478 717 746 813 658 l 813 0 l 539 0 l 539 417 b 447 528 539 490 513 528 b 339 401 379 528 339 488 l 339 0 l 65 0 "},"o":{"ha":869,"x_min":0,"x_max":0,"o":"m 436 183 b 561 360 519 183 561 244 l 561 369 b 436 544 561 483 521 544 b 307 374 353 544 307 488 l 307 363 b 436 183 307 244 349 183 m 435 -18 b 31 354 208 -18 31 115 l 31 365 b 436 746 31 601 207 746 b 839 372 663 746 839 606 l 839 361 b 435 -18 839 122 661 -18 "},"p":{"ha":897,"x_min":0,"x_max":0,"o":"m 65 726 l 339 726 l 339 621 b 561 746 379 689 451 746 b 865 368 726 746 865 622 l 865 357 b 560 -18 865 103 725 -18 b 339 104 453 -18 375 33 l 339 -242 l 65 -242 m 460 190 b 588 360 542 190 588 249 l 588 371 b 458 543 588 488 540 543 b 332 371 378 543 332 482 l 332 360 b 460 190 332 247 376 190 "},"q":{"ha":896,"x_min":0,"x_max":0,"o":"m 557 110 b 335 -18 521 42 444 -18 b 32 356 171 -18 32 100 l 32 367 b 335 746 32 619 169 746 b 557 626 449 746 517 700 l 557 726 l 831 726 l 831 -242 l 557 -242 m 436 190 b 564 361 518 190 564 249 l 564 372 b 438 543 564 482 519 543 b 310 371 354 543 310 488 l 310 360 b 436 190 310 247 356 190 "},"r":{"ha":608,"x_min":0,"x_max":0,"o":"m 65 726 l 339 726 l 339 579 b 572 736 385 692 464 738 l 572 481 b 339 335 421 489 339 439 l 339 0 l 65 0 "},"s":{"ha":726,"x_min":0,"x_max":0,"o":"m 363 -18 b 21 233 150 -18 25 69 l 271 233 b 361 158 279 186 299 158 b 438 210 414 158 438 179 b 310 271 438 242 407 258 b 28 501 114 293 28 346 b 351 747 28 668 174 747 b 683 507 540 747 667 685 l 438 507 b 356 575 429 550 406 575 b 283 525 306 575 283 553 b 397 469 283 492 317 478 b 704 238 607 444 704 394 b 363 -18 704 58 568 -18 "},"t":{"ha":550,"x_min":0,"x_max":0,"o":"m 368 -17 b 100 243 197 -17 100 61 l 100 543 l 15 543 l 15 726 l 100 726 l 100 875 l 374 875 l 374 726 l 513 726 l 513 543 l 374 543 l 374 269 b 444 199 374 219 400 199 b 513 210 469 199 489 201 l 513 4 b 368 -17 479 -6 428 -17 "},"u":{"ha":872,"x_min":0,"x_max":0,"o":"m 303 -18 b 60 250 164 -18 60 69 l 60 726 l 333 726 l 333 297 b 425 186 333 224 361 186 b 533 313 493 186 533 226 l 533 726 l 807 726 l 807 0 l 533 0 l 533 113 b 303 -18 493 35 425 -18 "},"v":{"ha":839,"x_min":0,"x_max":0,"o":"m 7 726 l 299 726 l 436 285 l 575 726 l 832 726 l 567 0 l 274 0 "},"w":{"ha":1186,"x_min":0,"x_max":0,"o":"m 7 726 l 292 726 l 386 319 l 497 726 l 717 726 l 814 319 l 924 726 l 1179 726 l 949 0 l 692 0 l 590 379 l 490 0 l 225 0 "},"x":{"ha":851,"x_min":0,"x_max":0,"o":"m 250 368 l 26 726 l 340 726 l 439 549 l 538 726 l 817 726 l 590 389 l 840 0 l 526 0 l 410 203 l 288 0 l 11 0 "},"y":{"ha":833,"x_min":0,"x_max":0,"o":"m 297 72 l 7 726 l 303 726 l 440 364 l 568 726 l 826 726 l 439 -242 l 179 -242 "},"z":{"ha":713,"x_min":0,"x_max":0,"o":"m 11 26 l 308 522 l 43 522 l 43 726 l 697 726 l 697 699 l 386 203 l 678 203 l 678 0 l 11 0 "},"{":{"ha":590,"x_min":0,"x_max":0,"o":"m 539 -206 b 151 122 246 -206 114 -104 l 169 235 b 40 343 181 297 142 343 l 40 533 b 169 640 142 533 181 578 l 151 751 b 539 1079 113 988 246 1079 l 539 881 b 421 761 438 875 410 847 l 438 624 b 293 440 449 532 396 464 b 438 256 397 418 449 349 l 421 119 b 539 -7 410 31 438 -1 l 539 -206 "},"|":{"ha":375,"x_min":0,"x_max":0,"o":"m 93 1078 l 282 1078 l 282 -206 l 93 -206 "},"}":{"ha":590,"x_min":0,"x_max":0,"o":"m 51 -7 b 169 119 153 -1 181 31 l 153 256 b 297 440 142 349 193 418 b 153 624 194 464 142 532 l 169 761 b 51 881 181 847 153 875 l 51 1079 b 439 751 344 1079 478 988 l 421 640 b 550 533 410 578 447 533 l 550 343 b 421 235 447 343 410 297 l 439 122 b 51 -206 476 -104 344 -206 "},"~":{"ha":739,"x_min":0,"x_max":0,"o":"m 35 296 b 250 589 46 507 143 589 b 467 528 351 589 418 528 b 529 590 504 528 522 551 l 703 590 b 489 297 697 394 596 297 b 272 357 385 297 322 357 b 210 296 233 357 215 332 l 35 296 "},"Ä":{"ha":1056,"x_min":0,"x_max":0,"o":"m 325 993 l 732 993 l 1043 0 l 710 0 l 664 165 l 350 165 l 306 0 l 13 0 m 367 1044 b 240 1168 296 1044 240 1100 b 367 1292 240 1238 296 1292 b 494 1168 438 1292 494 1238 b 367 1044 494 1100 438 1044 m 682 1044 b 556 1168 611 1044 556 1100 b 682 1292 556 1238 611 1292 b 810 1168 753 1292 810 1238 b 682 1044 810 1100 753 1044 m 410 379 l 606 379 l 508 739 "},"Å":{"ha":1056,"x_min":0,"x_max":0,"o":"m 325 993 l 732 993 l 1043 0 l 710 0 l 664 165 l 350 165 l 306 0 l 13 0 m 525 1031 b 356 1194 432 1031 356 1104 b 525 1358 356 1285 432 1358 b 694 1194 618 1358 694 1285 b 525 1031 694 1104 618 1031 m 410 379 l 606 379 l 508 739 m 525 1125 b 588 1194 561 1125 588 1154 b 525 1263 588 1235 561 1263 b 463 1194 488 1263 463 1235 b 525 1125 463 1154 488 1125 "},"Ç":{"ha":1061,"x_min":0,"x_max":0,"o":"m 526 -317 b 343 -186 422 -317 357 -271 l 468 -186 b 517 -222 472 -204 486 -222 b 558 -182 543 -222 558 -206 b 513 -140 558 -158 543 -140 b 468 -157 490 -140 476 -147 l 413 -100 l 471 -12 b 39 490 178 21 39 214 l 39 501 b 553 1008 39 808 260 1008 b 1025 617 821 1008 1001 886 l 700 617 b 554 760 690 708 642 760 b 371 503 440 760 371 671 l 371 492 b 560 235 371 326 438 235 b 724 381 649 235 713 281 l 1038 381 b 572 -18 1021 121 832 -15 l 542 -61 b 700 -182 625 -53 700 -90 b 526 -317 700 -267 632 -317 "},"É":{"ha":861,"x_min":0,"x_max":0,"o":"m 410 1258 l 689 1258 l 546 1051 l 339 1051 m 90 993 l 796 993 l 796 751 l 404 751 l 404 611 l 715 611 l 715 390 l 404 390 l 404 242 l 818 242 l 818 0 l 90 0 "},"Ñ":{"ha":1093,"x_min":0,"x_max":0,"o":"m 665 1049 b 497 1093 585 1049 540 1093 b 456 1051 475 1093 460 1076 l 304 1051 b 479 1274 314 1206 390 1274 b 651 1229 556 1274 604 1229 b 692 1271 675 1229 688 1246 l 844 1271 b 665 1049 833 1117 751 1049 m 90 993 l 443 993 l 725 468 l 725 993 l 1001 993 l 1001 0 l 700 0 l 368 594 l 368 0 l 90 0 "},"Ö":{"ha":1139,"x_min":0,"x_max":0,"o":"m 410 1044 b 283 1168 339 1044 283 1100 b 410 1292 283 1238 339 1292 b 538 1168 481 1292 538 1238 b 410 1044 538 1100 481 1044 m 725 1044 b 599 1168 654 1044 599 1100 b 725 1292 599 1238 654 1292 b 853 1168 796 1292 853 1238 b 725 1044 853 1100 796 1044 m 571 229 b 774 492 694 229 774 326 l 774 503 b 568 763 774 671 693 763 b 367 503 446 763 367 672 l 367 492 b 571 229 367 322 446 229 m 563 -18 b 38 490 238 -18 38 189 l 38 501 b 568 1008 38 808 271 1008 b 1101 510 874 1008 1101 824 l 1101 499 b 563 -18 1101 189 889 -18 "},"Ü":{"ha":1078,"x_min":0,"x_max":0,"o":"m 539 -18 b 85 410 249 -18 85 126 l 85 993 l 399 993 l 399 422 b 539 229 399 293 426 229 b 678 424 650 229 678 293 l 678 993 l 994 993 l 994 413 b 539 -18 994 114 817 -18 m 378 1044 b 251 1168 307 1044 251 1100 b 378 1292 251 1238 307 1292 b 506 1168 449 1292 506 1238 b 378 1044 506 1100 449 1044 m 693 1044 b 567 1168 622 1044 567 1100 b 693 1292 567 1238 622 1292 b 821 1168 764 1292 821 1238 b 693 1044 821 1100 764 1044 "},"á":{"ha":813,"x_min":0,"x_max":0,"o":"m 275 -18 b 28 201 144 -18 28 46 b 418 439 28 372 167 439 l 481 439 l 481 451 b 396 557 481 513 469 557 b 310 479 333 557 314 517 l 54 479 b 413 747 65 657 204 747 b 751 469 624 747 751 661 l 751 0 l 488 0 l 488 83 b 275 -18 457 33 393 -18 m 374 165 b 481 254 436 165 481 200 l 481 292 l 422 292 b 297 222 331 292 297 274 b 374 165 297 188 324 165 m 378 1038 l 646 1038 l 501 803 l 306 803 "},"à":{"ha":813,"x_min":0,"x_max":0,"o":"m 275 -18 b 28 201 144 -18 28 46 b 418 439 28 372 167 439 l 481 439 l 481 451 b 396 557 481 513 469 557 b 310 479 333 557 314 517 l 54 479 b 413 747 65 657 204 747 b 751 469 624 747 751 661 l 751 0 l 488 0 l 488 83 b 275 -18 457 33 393 -18 m 374 165 b 481 254 436 165 481 200 l 481 292 l 422 292 b 297 222 331 292 297 274 b 374 165 297 188 324 165 m 174 1038 l 442 1038 l 514 803 l 318 803 "},"â":{"ha":813,"x_min":0,"x_max":0,"o":"m 275 -18 b 28 201 144 -18 28 46 b 418 439 28 372 167 439 l 481 439 l 481 451 b 396 557 481 513 469 557 b 310 479 333 557 314 517 l 54 479 b 413 747 65 657 204 747 b 751 469 624 747 751 661 l 751 0 l 488 0 l 488 83 b 275 -18 457 33 393 -18 m 374 165 b 481 254 436 165 481 200 l 481 292 l 422 292 b 297 222 331 292 297 274 b 374 165 297 188 324 165 m 313 1036 l 504 1036 l 671 806 l 481 806 l 403 879 l 325 806 l 139 806 "},"ä":{"ha":813,"x_min":0,"x_max":0,"o":"m 275 -18 b 28 201 144 -18 28 46 b 418 439 28 372 167 439 l 481 439 l 481 451 b 396 557 481 513 469 557 b 310 479 333 557 314 517 l 54 479 b 413 747 65 657 204 747 b 751 469 624 747 751 661 l 751 0 l 488 0 l 488 83 b 275 -18 457 33 393 -18 m 374 165 b 481 254 436 165 481 200 l 481 292 l 422 292 b 297 222 331 292 297 274 b 374 165 297 188 324 165 m 258 792 b 132 915 188 792 132 847 b 258 1039 132 983 188 1039 b 386 915 329 1039 386 983 b 258 792 386 847 329 792 m 560 792 b 435 915 489 792 435 847 b 560 1039 435 983 489 1039 b 688 915 632 1039 688 983 b 560 792 688 847 632 792 "},"ã":{"ha":813,"x_min":0,"x_max":0,"o":"m 275 -18 b 28 201 144 -18 28 46 b 418 439 28 372 167 439 l 481 439 l 481 451 b 396 557 481 513 469 557 b 310 479 333 557 314 517 l 54 479 b 413 747 65 657 204 747 b 751 469 624 747 751 661 l 751 0 l 488 0 l 488 83 b 275 -18 457 33 393 -18 m 374 165 b 481 254 436 165 481 200 l 481 292 l 422 292 b 297 222 331 292 297 274 b 374 165 297 188 324 165 m 501 807 b 338 851 419 807 379 851 b 296 810 315 851 299 833 l 151 810 b 315 1035 160 963 226 1035 b 483 990 392 1035 438 990 b 525 1033 508 990 521 1007 l 669 1033 b 501 807 660 879 588 807 "},"å":{"ha":813,"x_min":0,"x_max":0,"o":"m 275 -18 b 28 201 144 -18 28 46 b 418 439 28 372 167 439 l 481 439 l 481 451 b 396 557 481 513 469 557 b 310 479 333 557 314 517 l 54 479 b 413 747 65 657 204 747 b 751 469 624 747 751 661 l 751 0 l 488 0 l 488 83 b 275 -18 457 33 393 -18 m 374 165 b 481 254 436 165 481 200 l 481 292 l 422 292 b 297 222 331 292 297 274 b 374 165 297 188 324 165 m 410 892 b 471 958 446 892 471 919 b 410 1026 471 999 446 1026 b 349 958 374 1026 349 999 b 410 892 349 919 374 892 m 410 797 b 243 958 318 797 243 869 b 410 1121 243 1047 318 1121 b 576 958 501 1121 576 1047 b 410 797 576 869 501 797 "},"ç":{"ha":814,"x_min":0,"x_max":0,"o":"m 389 -317 b 206 -186 285 -317 219 -271 l 331 -186 b 379 -222 335 -204 349 -222 b 421 -182 406 -222 421 -206 b 375 -140 421 -158 406 -140 b 331 -157 353 -140 339 -147 l 275 -100 l 333 -11 b 31 353 157 15 31 138 l 31 364 b 424 746 31 611 206 746 b 788 440 606 746 774 668 l 531 440 b 431 536 522 499 497 536 b 308 369 350 536 308 481 l 308 358 b 435 181 308 240 347 181 b 546 290 497 181 539 219 l 792 290 b 435 -18 785 107 667 -12 l 404 -61 b 563 -182 488 -53 563 -90 b 389 -317 563 -267 494 -317 "},"é":{"ha":839,"x_min":0,"x_max":0,"o":"m 393 1038 l 661 1038 l 517 803 l 321 803 m 432 -18 b 29 354 200 -18 29 114 l 29 365 b 432 747 29 601 210 747 b 810 369 636 747 810 631 l 810 303 l 306 303 b 442 168 313 215 364 168 b 556 246 518 168 547 204 l 811 246 b 432 -18 789 79 663 -18 m 546 446 b 432 571 543 524 506 571 b 307 446 365 571 318 528 "},"è":{"ha":839,"x_min":0,"x_max":0,"o":"m 432 -18 b 29 354 200 -18 29 114 l 29 365 b 432 747 29 601 210 747 b 810 369 636 747 810 631 l 810 303 l 306 303 b 442 168 313 215 364 168 b 556 246 518 168 547 204 l 811 246 b 432 -18 789 79 663 -18 m 546 446 b 432 571 543 524 506 571 b 307 446 365 571 318 528 m 189 1038 l 457 1038 l 529 803 l 333 803 "},"ê":{"ha":839,"x_min":0,"x_max":0,"o":"m 332 1036 l 524 1036 l 690 806 l 500 806 l 422 879 l 344 806 l 158 806 m 432 -18 b 29 354 200 -18 29 114 l 29 365 b 432 747 29 601 210 747 b 810 369 636 747 810 631 l 810 303 l 306 303 b 442 168 313 215 364 168 b 556 246 518 168 547 204 l 811 246 b 432 -18 789 79 663 -18 m 546 446 b 432 571 543 524 506 571 b 307 446 365 571 318 528 "},"ë":{"ha":839,"x_min":0,"x_max":0,"o":"m 274 792 b 147 915 203 792 147 847 b 274 1039 147 983 203 1039 b 401 915 344 1039 401 983 b 274 792 401 847 344 792 m 575 792 b 450 915 504 792 450 847 b 575 1039 450 983 504 1039 b 703 915 647 1039 703 983 b 575 792 703 847 647 792 m 432 -18 b 29 354 200 -18 29 114 l 29 365 b 432 747 29 601 210 747 b 810 369 636 747 810 631 l 810 303 l 306 303 b 442 168 313 215 364 168 b 556 246 518 168 547 204 l 811 246 b 432 -18 789 79 663 -18 m 546 446 b 432 571 543 524 506 571 b 307 446 365 571 318 528 "},"í":{"ha":421,"x_min":0,"x_max":0,"o":"m 179 1038 l 447 1038 l 303 803 l 107 803 m 74 726 l 346 726 l 346 0 l 74 0 "},"ì":{"ha":421,"x_min":0,"x_max":0,"o":"m 74 726 l 346 726 l 346 0 l 74 0 m -25 1038 l 243 1038 l 315 803 l 119 803 "},"î":{"ha":421,"x_min":0,"x_max":0,"o":"m 118 1036 l 310 1036 l 476 806 l 286 806 l 208 879 l 131 806 l -56 806 m 74 726 l 346 726 l 346 0 l 74 0 "},"ï":{"ha":421,"x_min":0,"x_max":0,"o":"m 60 792 b -67 915 -11 792 -67 847 b 60 1039 -67 983 -11 1039 b 188 915 131 1039 188 983 b 60 792 188 847 131 792 m 358 792 b 233 915 289 792 233 847 b 358 1039 233 983 289 1039 b 486 915 431 1039 486 983 b 358 792 486 847 431 792 m 74 726 l 346 726 l 346 0 l 74 0 "},"ñ":{"ha":874,"x_min":0,"x_max":0,"o":"m 65 726 l 339 726 l 339 610 b 579 746 379 686 457 746 b 813 478 717 746 813 658 l 813 0 l 539 0 l 539 417 b 447 528 539 490 513 528 b 339 401 379 528 339 488 l 339 0 l 65 0 m 529 807 b 365 851 447 807 407 851 b 324 810 343 851 326 833 l 179 810 b 343 1035 188 963 254 1035 b 511 990 419 1035 465 990 b 553 1033 536 990 549 1007 l 697 1033 b 529 807 688 879 615 807 "},"ó":{"ha":869,"x_min":0,"x_max":0,"o":"m 401 1038 l 669 1038 l 525 803 l 329 803 m 436 183 b 561 360 519 183 561 244 l 561 369 b 436 544 561 483 521 544 b 307 374 353 544 307 488 l 307 363 b 436 183 307 244 349 183 m 435 -18 b 31 354 208 -18 31 115 l 31 365 b 436 746 31 601 207 746 b 839 372 663 746 839 606 l 839 361 b 435 -18 839 122 661 -18 "},"ò":{"ha":869,"x_min":0,"x_max":0,"o":"m 436 183 b 561 360 519 183 561 244 l 561 369 b 436 544 561 483 521 544 b 307 374 353 544 307 488 l 307 363 b 436 183 307 244 349 183 m 435 -18 b 31 354 208 -18 31 115 l 31 365 b 436 746 31 601 207 746 b 839 372 663 746 839 606 l 839 361 b 435 -18 839 122 661 -18 m 197 1038 l 465 1038 l 538 803 l 342 803 "},"ô":{"ha":869,"x_min":0,"x_max":0,"o":"m 340 1036 l 532 1036 l 699 806 l 508 806 l 431 879 l 353 806 l 167 806 m 436 183 b 561 360 519 183 561 244 l 561 369 b 436 544 561 483 521 544 b 307 374 353 544 307 488 l 307 363 b 436 183 307 244 349 183 m 435 -18 b 31 354 208 -18 31 115 l 31 365 b 436 746 31 601 207 746 b 839 372 663 746 839 606 l 839 361 b 435 -18 839 122 661 -18 "},"ö":{"ha":869,"x_min":0,"x_max":0,"o":"m 282 792 b 156 915 211 792 156 847 b 282 1039 156 983 211 1039 b 410 915 353 1039 410 983 b 282 792 410 847 353 792 m 583 792 b 458 915 513 792 458 847 b 583 1039 458 983 513 1039 b 711 915 656 1039 711 983 b 583 792 711 847 656 792 m 436 183 b 561 360 519 183 561 244 l 561 369 b 436 544 561 483 521 544 b 307 374 353 544 307 488 l 307 363 b 436 183 307 244 349 183 m 435 -18 b 31 354 208 -18 31 115 l 31 365 b 436 746 31 601 207 746 b 839 372 663 746 839 606 l 839 361 b 435 -18 839 122 661 -18 "},"õ":{"ha":869,"x_min":0,"x_max":0,"o":"m 436 183 b 561 360 519 183 561 244 l 561 369 b 436 544 561 483 521 544 b 307 374 353 544 307 488 l 307 363 b 436 183 307 244 349 183 m 435 -18 b 31 354 208 -18 31 115 l 31 365 b 436 746 31 601 207 746 b 839 372 663 746 839 606 l 839 361 b 435 -18 839 122 661 -18 m 525 807 b 361 851 443 807 403 851 b 319 810 339 851 322 833 l 175 810 b 339 1035 183 963 250 1035 b 507 990 415 1035 461 990 b 549 1033 532 990 544 1007 l 693 1033 b 525 807 683 879 611 807 "},"ú":{"ha":872,"x_min":0,"x_max":0,"o":"m 401 1038 l 669 1038 l 525 803 l 329 803 m 303 -18 b 60 250 164 -18 60 69 l 60 726 l 333 726 l 333 297 b 425 186 333 224 361 186 b 533 313 493 186 533 226 l 533 726 l 807 726 l 807 0 l 533 0 l 533 113 b 303 -18 493 35 425 -18 "},"ù":{"ha":872,"x_min":0,"x_max":0,"o":"m 303 -18 b 60 250 164 -18 60 69 l 60 726 l 333 726 l 333 297 b 425 186 333 224 361 186 b 533 313 493 186 533 226 l 533 726 l 807 726 l 807 0 l 533 0 l 533 113 b 303 -18 493 35 425 -18 m 197 1038 l 465 1038 l 538 803 l 342 803 "},"û":{"ha":872,"x_min":0,"x_max":0,"o":"m 340 1036 l 532 1036 l 699 806 l 508 806 l 431 879 l 353 806 l 167 806 m 303 -18 b 60 250 164 -18 60 69 l 60 726 l 333 726 l 333 297 b 425 186 333 224 361 186 b 533 313 493 186 533 226 l 533 726 l 807 726 l 807 0 l 533 0 l 533 113 b 303 -18 493 35 425 -18 "},"ü":{"ha":872,"x_min":0,"x_max":0,"o":"m 282 792 b 156 915 211 792 156 847 b 282 1039 156 983 211 1039 b 410 915 353 1039 410 983 b 282 792 410 847 353 792 m 583 792 b 458 915 513 792 458 847 b 583 1039 458 983 513 1039 b 711 915 656 1039 711 983 b 583 792 711 847 656 792 m 303 -18 b 60 250 164 -18 60 69 l 60 726 l 333 726 l 333 297 b 425 186 333 224 361 186 b 533 313 493 186 533 226 l 533 726 l 807 726 l 807 0 l 533 0 l 533 113 b 303 -18 493 35 425 -18 "},"†":{"ha":571,"x_min":0,"x_max":0,"o":"m 176 644 l 31 644 l 31 833 l 176 833 l 176 993 l 394 993 l 394 833 l 540 833 l 540 644 l 394 644 l 394 296 l 176 296 "},"°":{"ha":635,"x_min":0,"x_max":0,"o":"m 319 622 b 444 763 393 622 444 683 b 319 906 444 844 393 906 b 190 763 243 906 190 844 b 319 622 190 683 243 622 m 319 522 b 69 763 181 522 69 632 b 319 1006 69 896 181 1006 b 565 763 454 1006 565 896 b 319 522 565 632 454 522 "},"¢":{"ha":833,"x_min":0,"x_max":0,"o":"m 388 -15 b 29 354 182 0 29 124 l 29 365 b 388 744 29 589 185 722 l 388 874 l 492 874 l 492 744 b 808 440 661 731 796 635 l 563 440 b 492 542 556 493 532 528 l 492 172 b 576 290 539 186 571 224 l 813 290 b 492 -15 807 117 693 1 l 492 -187 l 388 -187 m 299 357 b 388 175 299 254 329 196 l 388 542 b 299 368 332 522 299 467 l 299 357 "},"£":{"ha":928,"x_min":0,"x_max":0,"o":"m 44 568 l 111 568 b 96 683 101 603 96 640 b 492 1007 96 893 268 1007 b 888 660 764 1007 878 868 l 601 660 b 503 772 592 739 561 772 b 407 665 443 772 407 732 b 414 568 407 633 410 601 l 650 568 l 650 396 l 438 396 b 440 332 439 375 440 353 b 429 256 440 303 436 279 b 539 231 471 243 507 231 b 619 306 588 231 615 254 l 903 306 b 601 -12 896 124 793 -12 b 313 57 458 -12 378 57 b 250 0 274 57 254 33 l 19 0 b 163 256 26 111 72 210 b 172 332 168 276 172 301 b 165 396 172 354 169 375 l 44 396 "},"§":{"ha":858,"x_min":0,"x_max":0,"o":"m 413 -190 b 96 69 213 -190 103 -90 l 342 69 b 419 -10 344 21 368 -10 b 489 43 465 -10 489 10 b 349 119 489 82 453 96 b 25 397 153 167 25 228 b 174 589 25 493 85 554 b 117 746 135 631 117 685 b 447 1007 117 910 251 1007 b 761 746 646 1007 754 907 l 517 746 b 439 822 511 796 490 822 b 371 771 393 822 371 801 b 508 692 371 729 400 718 b 835 417 700 647 835 592 b 686 224 835 322 775 261 b 743 68 724 183 743 131 b 413 -190 743 -89 610 -190 m 522 321 b 572 375 558 328 572 346 b 440 457 572 415 535 426 l 339 490 b 289 436 304 485 289 465 b 421 356 289 399 331 385 l 522 321 "},"•":{"ha":526,"x_min":0,"x_max":0,"o":"m 263 208 b 53 419 143 208 53 303 b 263 631 53 536 143 631 b 474 419 385 631 474 536 b 263 208 474 303 385 208 "},"¶":{"ha":756,"x_min":0,"x_max":0,"o":"m 351 453 l 342 453 b 35 718 156 453 35 540 b 342 993 35 904 161 993 l 664 993 l 664 -139 l 558 -139 l 558 903 l 456 903 l 456 -139 l 351 -139 "},"ß":{"ha":894,"x_min":0,"x_max":0,"o":"m 540 -14 b 406 0 479 -14 433 -7 l 406 204 b 465 193 421 199 440 193 b 589 346 532 193 589 228 l 589 354 b 411 511 589 483 514 511 l 411 701 b 529 800 492 703 529 750 l 529 803 b 438 893 529 858 497 893 b 339 774 376 893 339 850 l 339 0 l 65 0 l 65 750 b 454 1069 65 982 243 1069 b 788 815 660 1069 788 986 l 788 813 b 624 619 788 715 717 647 b 867 335 751 592 867 503 l 867 325 b 540 -14 867 101 732 -14 "},"®":{"ha":718,"x_min":0,"x_max":0,"o":"m 239 854 l 365 854 b 494 754 451 854 494 819 l 494 753 b 446 672 494 711 475 688 l 513 550 l 407 550 l 354 651 l 340 651 l 340 550 l 239 550 m 360 717 b 396 747 385 717 396 726 l 396 749 b 360 776 396 769 383 776 l 340 776 l 340 717 m 360 444 b 617 699 506 444 617 549 b 360 953 617 849 510 953 b 101 697 208 953 101 847 b 360 444 101 546 214 444 m 360 389 b 39 697 182 389 39 522 b 360 1008 39 869 181 1008 b 679 699 540 1008 679 871 b 360 389 679 524 538 389 "},"©":{"ha":1169,"x_min":0,"x_max":0,"o":"m 596 208 b 297 492 393 208 297 321 l 297 503 b 589 785 297 675 422 785 b 856 563 740 785 843 717 l 665 563 b 589 638 660 610 635 638 b 492 503 529 638 492 593 l 492 493 b 592 357 492 404 526 357 b 679 435 639 357 674 381 l 863 435 b 596 208 856 288 746 208 m 583 43 b 1032 499 831 43 1032 226 b 586 950 1032 767 836 950 b 138 496 333 950 138 765 b 583 43 138 224 340 43 m 583 -29 b 47 496 286 -29 47 197 b 586 1022 47 790 285 1022 b 1124 499 892 1022 1124 792 b 583 -29 1124 199 885 -29 "},"™":{"ha":1067,"x_min":0,"x_max":0,"o":"m 474 993 l 664 993 l 739 790 l 815 993 l 1008 993 l 1008 547 l 846 547 l 846 783 l 754 547 l 703 547 l 613 783 l 613 547 l 474 547 m 151 865 l 39 865 l 39 993 l 424 993 l 424 865 l 313 865 l 313 547 l 151 547 "},"´":{"ha":556,"x_min":0,"x_max":0,"o":"m 243 1038 l 511 1038 l 367 803 l 171 803 "},"¨":{"ha":556,"x_min":0,"x_max":0,"o":"m 126 792 b 0 915 56 792 0 847 b 126 1039 0 983 56 1039 b 254 915 197 1039 254 983 b 126 792 254 847 197 792 m 428 792 b 303 915 357 792 303 847 b 428 1039 303 983 357 1039 b 556 915 500 1039 556 983 b 428 792 556 847 500 792 "},"≠":{"ha":792,"x_min":0,"x_max":0,"o":"m 53 683 l 400 683 l 451 817 l 621 817 l 569 683 l 738 683 l 738 501 l 499 501 l 463 407 l 738 407 l 738 225 l 393 225 l 342 92 l 171 92 l 222 225 l 53 225 l 53 407 l 292 407 l 329 501 l 53 501 "},"Æ":{"ha":1406,"x_min":0,"x_max":0,"o":"m 444 993 l 1340 993 l 1340 751 l 958 751 l 958 611 l 1260 611 l 1260 390 l 958 390 l 958 242 l 1363 242 l 1363 0 l 646 0 l 646 188 l 386 188 l 308 0 l 10 0 m 472 396 l 646 396 l 646 751 l 621 751 "},"Ø":{"ha":1139,"x_min":0,"x_max":0,"o":"m 47 32 l 156 146 b 38 490 79 233 38 353 l 38 501 b 568 1007 38 808 271 1007 b 889 921 690 1007 800 976 l 990 1029 l 1069 951 l 975 851 b 1103 510 1056 768 1103 653 l 1103 499 b 563 -18 1103 189 890 -18 b 239 72 433 -18 324 14 l 126 -46 m 569 229 b 776 493 697 229 776 326 l 776 504 b 760 624 776 550 771 589 l 433 279 b 569 229 468 246 514 229 m 363 492 b 376 379 363 449 367 411 l 697 719 b 568 763 663 747 619 763 b 363 503 443 763 363 674 l 363 492 "},"±":{"ha":804,"x_min":0,"x_max":0,"o":"m 293 476 l 53 476 l 53 674 l 293 674 l 293 899 l 511 899 l 511 674 l 753 674 l 753 476 l 511 476 l 511 253 l 293 253 m 53 175 l 757 175 l 757 0 l 53 0 "},"≤":{"ha":714,"x_min":0,"x_max":0,"o":"m 56 522 l 56 574 l 650 892 l 650 650 l 443 550 l 650 449 l 650 204 m 56 175 l 650 175 l 650 0 l 56 0 "},"≥":{"ha":714,"x_min":0,"x_max":0,"o":"m 64 449 l 271 550 l 64 650 l 64 892 l 658 574 l 658 522 l 64 204 m 64 175 l 658 175 l 658 0 l 64 0 "},"¥":{"ha":915,"x_min":0,"x_max":0,"o":"m 85 514 l 271 514 l 11 993 l 351 993 l 478 693 l 604 993 l 904 993 l 657 514 l 846 514 l 846 413 l 624 413 l 624 347 l 846 347 l 846 244 l 624 244 l 624 0 l 307 0 l 307 244 l 85 244 l 85 347 l 307 347 l 307 413 l 85 413 "},"ª":{"ha":688,"x_min":0,"x_max":0,"o":"m 233 399 b 38 572 131 399 38 449 b 343 757 38 708 138 757 l 394 757 l 394 775 b 339 842 394 814 385 842 b 279 786 297 842 283 811 l 57 786 b 351 1004 65 926 175 1004 b 631 782 531 1004 631 932 l 631 414 l 400 414 l 400 479 b 233 399 379 442 329 399 m 324 557 b 394 615 365 557 394 581 l 394 640 l 351 640 b 272 596 293 640 272 626 b 324 557 272 569 290 557 "},"º":{"ha":732,"x_min":0,"x_max":0,"o":"m 367 574 b 450 699 426 574 450 615 l 450 707 b 367 831 450 788 425 831 b 282 710 311 831 282 792 l 282 701 b 367 574 282 615 308 574 m 365 399 b 39 692 183 399 39 500 l 39 700 b 367 1004 39 892 183 1004 b 693 708 550 1004 693 896 l 693 700 b 365 399 693 508 547 399 "},"æ":{"ha":1268,"x_min":0,"x_max":0,"o":"m 869 -18 b 583 104 739 -18 643 24 b 301 -18 526 29 443 -18 b 26 201 151 -18 26 46 b 415 443 26 372 164 443 l 483 443 l 483 451 b 396 557 483 514 468 557 b 308 479 333 557 314 524 l 53 479 b 406 747 64 657 204 747 b 636 668 515 747 590 722 b 865 747 694 719 774 747 b 1239 369 1068 747 1239 632 l 1239 304 l 743 304 b 874 168 750 215 796 168 b 986 246 950 168 978 204 l 1239 246 b 869 -18 1218 79 1093 -18 m 976 443 b 865 571 972 524 938 571 b 744 443 799 571 753 526 m 374 165 b 483 254 442 165 483 200 l 483 300 l 419 300 b 296 229 335 300 296 282 b 374 165 296 188 324 165 "},"ø":{"ha":869,"x_min":0,"x_max":0,"o":"m 31 10 l 119 104 b 29 354 63 167 29 250 l 29 365 b 436 747 29 601 207 747 b 668 688 522 747 603 726 l 758 783 l 828 719 l 742 628 b 839 372 803 565 839 478 l 839 361 b 435 -18 839 122 661 -18 b 194 44 344 -18 261 3 l 101 -54 m 436 182 b 565 358 522 182 565 244 l 565 369 b 560 433 565 393 563 414 l 351 211 b 436 182 372 192 400 182 m 304 363 b 308 304 304 342 306 322 l 513 522 b 436 546 492 538 467 546 b 304 374 350 546 304 489 l 304 363 "},"¿":{"ha":790,"x_min":0,"x_max":0,"o":"m 557 478 b 424 247 557 374 486 307 b 335 118 376 204 335 164 b 407 46 335 69 357 46 b 503 157 460 46 493 88 l 769 157 b 385 -176 764 -62 607 -176 b 38 92 167 -176 38 -83 b 132 294 38 181 78 242 b 299 483 201 364 283 418 l 299 497 l 557 497 m 428 849 b 588 701 517 849 588 783 b 428 554 588 621 517 554 b 269 701 340 554 269 621 b 428 849 269 783 340 849 "},"¡":{"ha":476,"x_min":0,"x_max":0,"o":"m 124 496 l 351 496 l 392 -162 l 83 -162 m 238 554 b 79 701 150 554 79 619 b 238 847 79 782 150 847 b 396 701 325 847 396 782 b 238 554 396 619 325 554 "},"ƒ":{"ha":633,"x_min":0,"x_max":0,"o":"m 31 576 l 154 576 l 178 742 b 497 1007 204 935 324 1007 b 608 992 543 1007 572 1003 l 608 789 b 540 799 589 796 571 799 b 446 718 486 799 454 772 l 425 576 l 579 576 l 579 393 l 400 393 l 310 -253 l 39 -253 l 129 393 l 31 393 "},"≈":{"ha":824,"x_min":0,"x_max":0,"o":"m 50 157 b 253 418 61 344 151 418 b 557 364 367 418 490 364 b 619 425 593 364 615 386 l 774 425 b 574 163 768 249 675 163 b 267 218 458 163 335 218 b 204 157 231 218 210 194 l 50 157 m 50 474 b 253 735 61 661 151 735 b 557 682 367 735 490 682 b 619 740 593 682 615 703 l 774 740 b 574 481 768 565 675 481 b 267 535 458 481 335 535 b 204 474 231 535 210 511 l 50 474 "},"«":{"ha":663,"x_min":0,"x_max":0,"o":"m 35 363 l 207 632 l 375 632 l 210 363 l 375 93 l 207 93 m 286 363 l 458 632 l 626 632 l 461 363 l 626 93 l 458 93 "},"»":{"ha":663,"x_min":0,"x_max":0,"o":"m 201 363 l 36 632 l 204 632 l 376 363 l 204 93 l 36 93 m 451 363 l 286 632 l 454 632 l 626 363 l 454 93 l 286 93 "},"…":{"ha":1263,"x_min":0,"x_max":0,"o":"m 208 -17 b 56 133 121 -17 56 49 b 208 282 56 215 121 282 b 364 133 297 282 364 215 b 208 -17 364 49 297 -17 m 629 -17 b 478 133 542 -17 478 49 b 629 282 478 215 542 282 b 785 133 719 282 785 215 b 629 -17 785 49 719 -17 m 1050 -17 b 899 133 963 -17 899 49 b 1050 282 899 215 963 282 b 1207 133 1140 282 1207 215 b 1050 -17 1207 49 1140 -17 "}," ":{"ha":351,"x_min":0,"x_max":0,"o":""},"À":{"ha":1056,"x_min":0,"x_max":0,"o":"m 325 993 l 732 993 l 1043 0 l 710 0 l 664 165 l 350 165 l 306 0 l 13 0 m 294 1258 l 575 1258 l 640 1051 l 433 1051 m 410 379 l 606 379 l 508 739 "},"Ã":{"ha":1056,"x_min":0,"x_max":0,"o":"m 325 993 l 732 993 l 1043 0 l 710 0 l 664 165 l 350 165 l 306 0 l 13 0 m 617 1049 b 449 1093 536 1049 492 1093 b 407 1051 426 1093 411 1076 l 256 1051 b 431 1274 265 1206 342 1274 b 603 1229 507 1274 556 1229 b 643 1271 626 1229 639 1246 l 796 1271 b 617 1049 785 1117 703 1049 m 410 379 l 606 379 l 508 739 "},"Õ":{"ha":1139,"x_min":0,"x_max":0,"o":"m 660 1049 b 492 1093 579 1049 535 1093 b 450 1051 469 1093 454 1076 l 299 1051 b 474 1274 308 1206 385 1274 b 646 1229 550 1274 599 1229 b 686 1271 669 1229 682 1246 l 839 1271 b 660 1049 828 1117 746 1049 m 571 229 b 774 492 694 229 774 326 l 774 503 b 568 763 774 671 693 763 b 367 503 446 763 367 672 l 367 492 b 571 229 367 322 446 229 m 563 -18 b 38 490 238 -18 38 189 l 38 501 b 568 1008 38 808 271 1008 b 1101 510 874 1008 1101 824 l 1101 499 b 563 -18 1101 189 889 -18 "},"Œ":{"ha":1365,"x_min":0,"x_max":0,"o":"m 38 494 b 572 993 38 811 226 993 l 1301 993 l 1301 751 l 929 751 l 929 611 l 1219 611 l 1219 390 l 929 390 l 929 242 l 1322 242 l 1322 0 l 572 0 b 38 485 221 0 38 169 l 38 494 m 582 751 b 367 501 429 751 367 675 l 367 490 b 585 242 367 308 432 242 l 617 242 l 617 751 "},"œ":{"ha":1367,"x_min":0,"x_max":0,"o":"m 435 -18 b 29 354 208 -18 29 115 l 29 365 b 436 747 29 601 207 747 b 699 646 544 747 635 711 b 960 747 764 711 854 747 b 1338 369 1164 747 1338 631 l 1338 303 l 833 303 b 969 168 840 215 892 168 b 1083 246 1046 168 1075 204 l 1338 246 b 960 -18 1317 79 1189 -18 b 693 78 849 -18 757 15 b 435 -18 629 15 540 -18 m 436 183 b 561 358 519 183 561 246 l 561 369 b 436 544 561 483 521 544 b 308 374 353 544 308 488 l 308 363 b 436 183 308 244 349 183 m 1074 446 b 960 571 1071 524 1033 571 b 835 446 893 571 846 528 "},"–":{"ha":754,"x_min":0,"x_max":0,"o":"m 64 488 l 690 488 l 690 332 l 64 332 "},"—":{"ha":1331,"x_min":0,"x_max":0,"o":"m 64 488 l 1267 488 l 1267 332 l 64 332 "},"“":{"ha":771,"x_min":0,"x_max":0,"o":"m 39 657 l 235 1011 l 388 956 l 279 579 m 368 657 l 563 1011 l 714 956 l 606 579 "},"”":{"ha":771,"x_min":0,"x_max":0,"o":"m 58 638 l 167 1011 l 404 935 l 210 579 m 385 638 l 493 1011 l 733 935 l 538 579 "},"‘":{"ha":446,"x_min":0,"x_max":0,"o":"m 39 657 l 235 1011 l 388 956 l 279 579 "},"’":{"ha":446,"x_min":0,"x_max":0,"o":"m 58 638 l 167 1011 l 404 935 l 210 579 "},"÷":{"ha":808,"x_min":0,"x_max":0,"o":"m 404 47 b 265 183 328 47 265 107 b 404 318 265 258 328 318 b 543 183 481 318 543 258 b 404 47 543 107 481 47 m 53 565 l 757 565 l 757 379 l 53 379 m 404 625 b 265 760 328 625 265 685 b 404 896 265 836 328 896 b 543 760 481 896 543 836 b 404 625 543 685 481 625 "},"ÿ":{"ha":833,"x_min":0,"x_max":0,"o":"m 297 72 l 7 726 l 303 726 l 440 364 l 568 726 l 826 726 l 439 -242 l 179 -242 m 281 792 b 154 915 210 792 154 847 b 281 1039 154 983 210 1039 b 408 915 351 1039 408 983 b 281 792 408 847 351 792 m 582 792 b 457 915 511 792 457 847 b 582 1039 457 983 511 1039 b 710 915 654 1039 710 983 b 582 792 710 847 654 792 "},"Ÿ":{"ha":961,"x_min":0,"x_max":0,"o":"m 329 424 l 7 993 l 349 993 l 500 682 l 653 993 l 954 993 l 646 425 l 646 0 l 329 0 m 332 1044 b 206 1168 261 1044 206 1100 b 332 1292 206 1238 261 1292 b 460 1168 403 1292 460 1238 b 332 1044 460 1100 403 1044 m 647 1044 b 521 1168 576 1044 521 1100 b 647 1292 521 1238 576 1292 b 775 1168 718 1292 775 1238 b 647 1044 775 1100 718 1044 "},"⁄":{"ha":247,"x_min":0,"x_max":0,"o":"m 450 993 l 588 993 l -203 0 l -342 0 "},"€":{"ha":1011,"x_min":0,"x_max":0,"o":"m 29 628 l 114 628 b 557 1008 151 851 317 1008 b 972 640 806 1008 950 883 l 682 640 b 554 771 672 726 631 771 b 419 628 475 771 433 715 l 613 628 l 594 525 l 413 525 l 413 461 l 583 461 l 567 358 l 418 358 b 556 224 433 272 474 224 b 690 372 643 224 679 274 l 979 372 b 547 -18 950 126 815 -18 b 114 358 289 -18 144 138 l 29 358 l 29 461 l 107 461 l 107 525 l 29 525 "},"‹":{"ha":422,"x_min":0,"x_max":0,"o":"m 35 363 l 207 632 l 386 632 l 221 363 l 386 93 l 207 93 "},"›":{"ha":422,"x_min":0,"x_max":0,"o":"m 201 363 l 36 632 l 215 632 l 388 363 l 215 93 l 36 93 "},"‡":{"ha":571,"x_min":0,"x_max":0,"o":"m 176 690 l 31 690 l 31 861 l 176 861 l 176 993 l 394 993 l 394 861 l 540 861 l 540 690 l 394 690 l 394 599 l 540 599 l 540 428 l 394 428 l 394 296 l 176 296 l 176 428 l 31 428 l 31 599 l 176 599 "},"·":{"ha":419,"x_min":0,"x_max":0,"o":"m 208 304 b 56 453 121 304 56 369 b 208 603 56 536 121 603 b 364 453 297 603 364 536 b 208 304 364 369 297 304 "},"‚":{"ha":443,"x_min":0,"x_max":0,"o":"m 53 -87 l 161 288 l 400 210 l 204 -146 "},"„":{"ha":771,"x_min":0,"x_max":0,"o":"m 53 -87 l 161 288 l 400 210 l 204 -146 m 379 -87 l 488 288 l 728 210 l 532 -146 "},"‰":{"ha":1722,"x_min":0,"x_max":0,"o":"m 300 660 b 372 758 347 660 372 697 b 300 854 372 817 347 854 b 228 758 256 854 228 817 b 300 660 228 696 256 660 m 300 504 b 32 757 128 504 32 614 b 300 1004 32 899 146 1004 b 568 763 454 1004 568 904 b 300 504 568 617 467 504 m 861 993 l 1003 993 l 297 0 l 157 0 m 851 138 b 924 236 899 138 924 176 b 851 332 924 296 899 332 b 779 236 807 332 779 296 b 851 138 779 174 807 138 m 851 -18 b 583 235 679 -18 583 92 b 851 483 583 376 697 483 b 1119 240 1006 483 1119 383 b 851 -18 1119 96 1018 -18 m 1422 138 b 1494 236 1469 138 1494 176 b 1422 332 1494 296 1469 332 b 1350 236 1376 332 1350 296 b 1422 138 1350 174 1376 138 m 1421 -18 b 1154 235 1250 -18 1154 92 b 1422 483 1154 376 1268 483 b 1690 240 1575 483 1690 383 b 1421 -18 1690 96 1589 -18 "},"Â":{"ha":1056,"x_min":0,"x_max":0,"o":"m 325 993 l 732 993 l 1043 0 l 710 0 l 664 165 l 350 165 l 306 0 l 13 0 m 414 1258 l 642 1258 l 794 1051 l 597 1051 l 522 1117 l 447 1051 l 254 1051 m 410 379 l 606 379 l 508 739 "},"Ê":{"ha":861,"x_min":0,"x_max":0,"o":"m 343 1258 l 571 1258 l 724 1051 l 526 1051 l 451 1117 l 376 1051 l 183 1051 m 90 993 l 796 993 l 796 751 l 404 751 l 404 611 l 715 611 l 715 390 l 404 390 l 404 242 l 818 242 l 818 0 l 90 0 "},"Á":{"ha":1056,"x_min":0,"x_max":0,"o":"m 325 993 l 732 993 l 1043 0 l 710 0 l 664 165 l 350 165 l 306 0 l 13 0 m 481 1258 l 760 1258 l 617 1051 l 410 1051 m 410 379 l 606 379 l 508 739 "},"Ë":{"ha":861,"x_min":0,"x_max":0,"o":"m 90 993 l 796 993 l 796 751 l 404 751 l 404 611 l 715 611 l 715 390 l 404 390 l 404 242 l 818 242 l 818 0 l 90 0 m 296 1044 b 169 1168 225 1044 169 1100 b 296 1292 169 1238 225 1292 b 424 1168 367 1292 424 1238 b 296 1044 424 1100 367 1044 m 611 1044 b 485 1168 540 1044 485 1100 b 611 1292 485 1238 540 1292 b 739 1168 682 1292 739 1238 b 611 1044 739 1100 682 1044 "},"È":{"ha":861,"x_min":0,"x_max":0,"o":"m 224 1258 l 504 1258 l 569 1051 l 363 1051 m 90 993 l 796 993 l 796 751 l 404 751 l 404 611 l 715 611 l 715 390 l 404 390 l 404 242 l 818 242 l 818 0 l 90 0 "},"Í":{"ha":508,"x_min":0,"x_max":0,"o":"m 94 993 l 413 993 l 413 0 l 94 0 m 210 1258 l 489 1258 l 346 1051 l 139 1051 "},"Î":{"ha":508,"x_min":0,"x_max":0,"o":"m 94 993 l 413 993 l 413 0 l 94 0 m 143 1258 l 371 1258 l 524 1051 l 326 1051 l 251 1117 l 176 1051 l -17 1051 "},"Ï":{"ha":508,"x_min":0,"x_max":0,"o":"m 94 993 l 413 993 l 413 0 l 94 0 m 96 1044 b -31 1168 25 1044 -31 1100 b 96 1292 -31 1238 25 1292 b 224 1168 167 1292 224 1238 b 96 1044 224 1100 167 1044 m 411 1044 b 285 1168 340 1044 285 1100 b 411 1292 285 1238 340 1292 b 539 1168 482 1292 539 1238 b 411 1044 539 1100 482 1044 "},"Ì":{"ha":508,"x_min":0,"x_max":0,"o":"m 94 993 l 413 993 l 413 0 l 94 0 m 24 1258 l 304 1258 l 369 1051 l 163 1051 "},"Ó":{"ha":1139,"x_min":0,"x_max":0,"o":"m 524 1258 l 803 1258 l 660 1051 l 453 1051 m 571 229 b 774 492 694 229 774 326 l 774 503 b 568 763 774 671 693 763 b 367 503 446 763 367 672 l 367 492 b 571 229 367 322 446 229 m 563 -18 b 38 490 238 -18 38 189 l 38 501 b 568 1008 38 808 271 1008 b 1101 510 874 1008 1101 824 l 1101 499 b 563 -18 1101 189 889 -18 "},"Ô":{"ha":1139,"x_min":0,"x_max":0,"o":"m 457 1258 l 685 1258 l 838 1051 l 640 1051 l 565 1117 l 490 1051 l 297 1051 m 571 229 b 774 492 694 229 774 326 l 774 503 b 568 763 774 671 693 763 b 367 503 446 763 367 672 l 367 492 b 571 229 367 322 446 229 m 563 -18 b 38 490 238 -18 38 189 l 38 501 b 568 1008 38 808 271 1008 b 1101 510 874 1008 1101 824 l 1101 499 b 563 -18 1101 189 889 -18 "},"Ò":{"ha":1139,"x_min":0,"x_max":0,"o":"m 338 1258 l 618 1258 l 683 1051 l 476 1051 m 571 229 b 774 492 694 229 774 326 l 774 503 b 568 763 774 671 693 763 b 367 503 446 763 367 672 l 367 492 b 571 229 367 322 446 229 m 563 -18 b 38 490 238 -18 38 189 l 38 501 b 568 1008 38 808 271 1008 b 1101 510 874 1008 1101 824 l 1101 499 b 563 -18 1101 189 889 -18 "},"Ú":{"ha":1078,"x_min":0,"x_max":0,"o":"m 492 1258 l 771 1258 l 628 1051 l 421 1051 m 539 -18 b 85 410 249 -18 85 126 l 85 993 l 399 993 l 399 422 b 539 229 399 293 426 229 b 678 424 650 229 678 293 l 678 993 l 994 993 l 994 413 b 539 -18 994 114 817 -18 "},"Û":{"ha":1078,"x_min":0,"x_max":0,"o":"m 425 1258 l 653 1258 l 806 1051 l 608 1051 l 533 1117 l 458 1051 l 265 1051 m 539 -18 b 85 410 249 -18 85 126 l 85 993 l 399 993 l 399 422 b 539 229 399 293 426 229 b 678 424 650 229 678 293 l 678 993 l 994 993 l 994 413 b 539 -18 994 114 817 -18 "},"Ù":{"ha":1078,"x_min":0,"x_max":0,"o":"m 306 1258 l 586 1258 l 651 1051 l 444 1051 m 539 -18 b 85 410 249 -18 85 126 l 85 993 l 399 993 l 399 422 b 539 229 399 293 426 229 b 678 424 650 229 678 293 l 678 993 l 994 993 l 994 413 b 539 -18 994 114 817 -18 "},"ı":{"ha":421,"x_min":0,"x_max":0,"o":"m 74 726 l 346 726 l 346 0 l 74 0 "},"ˆ":{"ha":556,"x_min":0,"x_max":0,"o":"m 185 1036 l 376 1036 l 543 806 l 353 806 l 275 879 l 197 806 l 11 806 "},"˜":{"ha":556,"x_min":0,"x_max":0,"o":"m 369 807 b 206 851 288 807 247 851 b 164 810 183 851 167 833 l 19 810 b 183 1035 28 963 94 1035 b 351 990 260 1035 306 990 b 393 1033 376 990 389 1007 l 538 1033 b 369 807 528 879 456 807 "},"¯":{"ha":556,"x_min":0,"x_max":0,"o":"m 58 989 l 497 989 l 497 840 l 58 840 "},"˘":{"ha":556,"x_min":0,"x_max":0,"o":"m 278 807 b 43 1033 138 807 50 886 l 208 1033 b 278 971 211 994 235 971 b 349 1033 318 971 344 994 l 513 1033 b 278 807 504 886 411 807 "},"˙":{"ha":556,"x_min":0,"x_max":0,"o":"m 278 792 b 135 924 194 792 135 847 b 278 1057 135 1000 194 1057 b 421 924 358 1057 421 1000 b 278 792 421 847 358 792 "},"˚":{"ha":556,"x_min":0,"x_max":0,"o":"m 278 892 b 339 958 314 892 339 919 b 278 1026 339 999 314 1026 b 217 958 242 1026 217 999 b 278 892 217 919 242 892 m 278 797 b 111 958 186 797 111 869 b 278 1121 111 1047 186 1121 b 444 958 369 1121 444 1047 b 278 797 444 869 369 797 "},"¸":{"ha":556,"x_min":0,"x_max":0,"o":"m 282 -317 b 99 -186 178 -317 113 -271 l 224 -186 b 272 -222 228 -204 242 -222 b 314 -182 299 -222 314 -206 b 268 -140 314 -158 299 -140 b 224 -157 246 -140 232 -147 l 168 -100 l 235 0 l 340 0 l 297 -61 b 456 -182 381 -53 456 -90 b 282 -317 456 -267 388 -317 "},"˝":{"ha":556,"x_min":0,"x_max":0,"o":"m 126 1038 l 332 1038 l 224 803 l 65 803 m 378 1038 l 583 1038 l 476 803 l 317 803 "},"˛":{"ha":556,"x_min":0,"x_max":0,"o":"m 269 -253 b 104 -144 179 -253 104 -214 b 226 0 104 -72 167 -28 l 376 0 b 324 -82 342 -29 324 -54 b 365 -118 324 -106 340 -118 b 400 -112 379 -118 390 -117 l 400 -229 b 269 -253 375 -242 328 -253 "},"ˇ":{"ha":556,"x_min":0,"x_max":0,"o":"m 11 1036 l 201 1036 l 279 964 l 357 1036 l 543 1036 l 369 806 l 178 806 "},"Đ":{"ha":1090,"x_min":0,"x_max":0,"o":"m 40 604 l 115 604 l 115 993 l 494 993 b 1032 508 850 993 1032 824 l 1032 499 b 494 0 1032 182 846 0 l 115 0 l 115 394 l 40 394 m 485 242 b 703 492 639 242 703 318 l 703 503 b 482 751 703 685 635 751 l 425 751 l 425 604 l 569 604 l 569 394 l 425 394 l 425 242 "},"Ŋ":{"ha":1093,"x_min":0,"x_max":0,"o":"m 657 -267 b 479 -235 567 -267 522 -253 l 479 -14 b 583 -32 511 -24 535 -32 b 688 26 636 -32 675 -14 l 372 610 l 372 0 l 90 0 l 90 993 l 447 993 l 721 460 l 721 993 l 1001 993 l 1001 36 b 657 -267 1001 -142 890 -267 "},"Ĳ":{"ha":1153,"x_min":0,"x_max":0,"o":"m 94 993 l 413 993 l 413 0 l 94 0 m 707 -12 b 518 22 610 -12 560 1 l 518 254 b 636 236 550 244 582 236 b 761 365 710 236 761 268 l 761 993 l 1076 993 l 1076 364 b 707 -12 1076 118 956 -12 "},"ȷ":{"ha":421,"x_min":0,"x_max":0,"o":"m -12 -58 b 72 22 46 -56 72 -33 l 72 726 l 346 726 l 346 15 b -12 -254 346 -146 269 -254 "},"đ":{"ha":896,"x_min":0,"x_max":0,"o":"m 347 950 l 557 950 l 557 1042 l 831 1042 l 831 950 l 904 950 l 904 807 l 831 807 l 831 0 l 557 0 l 557 117 b 335 -18 521 42 444 -18 b 32 356 171 -18 32 100 l 32 367 b 335 746 32 619 169 746 b 557 626 449 746 517 700 l 557 807 l 347 807 m 436 190 b 564 361 518 190 564 249 l 564 372 b 438 543 564 482 519 543 b 310 371 354 543 310 488 l 310 360 b 436 190 310 247 356 190 "},"ŋ":{"ha":874,"x_min":0,"x_max":0,"o":"m 456 -58 b 539 22 514 -56 539 -33 l 539 417 b 447 528 539 490 513 528 b 339 401 379 528 339 488 l 339 0 l 65 0 l 65 726 l 339 726 l 339 610 b 579 746 379 686 457 746 b 813 478 717 746 813 658 l 813 15 b 456 -254 813 -146 736 -254 "},"ĳ":{"ha":840,"x_min":0,"x_max":0,"o":"m 74 726 l 346 726 l 346 0 l 74 0 m 210 781 b 61 918 125 781 61 839 b 210 1057 61 999 125 1057 b 357 918 293 1057 357 999 b 210 781 357 839 293 781 m 407 -58 b 492 22 465 -56 492 -33 l 492 726 l 765 726 l 765 15 b 407 -254 765 -146 689 -254 m 629 781 b 481 918 544 781 481 839 b 629 1057 481 999 544 1057 b 776 918 713 1057 776 999 b 629 781 776 839 713 781 "},"Ă":{"ha":1056,"x_min":0,"x_max":0,"o":"m 325 993 l 732 993 l 1043 0 l 710 0 l 664 165 l 350 165 l 306 0 l 13 0 m 525 1040 b 288 1258 381 1040 296 1121 l 460 1258 b 525 1200 463 1222 486 1200 b 590 1258 561 1200 586 1224 l 763 1258 b 525 1040 753 1121 663 1040 m 410 379 l 606 379 l 508 739 "},"Ā":{"ha":1056,"x_min":0,"x_max":0,"o":"m 325 993 l 732 993 l 1043 0 l 710 0 l 664 165 l 350 165 l 306 0 l 13 0 m 293 1228 l 756 1228 l 756 1068 l 293 1068 m 410 379 l 606 379 l 508 739 "},"Ą":{"ha":1056,"x_min":0,"x_max":0,"o":"m 897 -253 b 719 -139 786 -253 719 -208 b 840 0 719 -71 783 -29 l 710 0 l 664 165 l 350 165 l 306 0 l 13 0 l 325 993 l 732 993 l 1036 21 b 954 -76 983 -8 954 -50 b 993 -110 954 -97 968 -110 b 1028 -104 1008 -110 1018 -108 l 1028 -229 b 897 -253 1004 -242 958 -253 m 410 379 l 606 379 l 508 739 "},"Ǻ":{"ha":1056,"x_min":0,"x_max":0,"o":"m 325 993 l 732 993 l 1043 0 l 710 0 l 664 165 l 350 165 l 306 0 l 13 0 m 529 1028 b 360 1192 436 1028 360 1101 b 529 1356 360 1282 436 1356 b 699 1192 622 1356 699 1282 b 529 1028 699 1101 622 1028 m 496 1586 l 775 1586 l 632 1379 l 425 1379 m 410 379 l 606 379 l 508 739 m 529 1122 b 592 1192 565 1122 592 1151 b 529 1260 592 1232 565 1260 b 467 1192 492 1260 467 1232 b 529 1122 467 1151 492 1122 "},"Ǽ":{"ha":1406,"x_min":0,"x_max":0,"o":"m 444 993 l 1340 993 l 1340 751 l 958 751 l 958 611 l 1260 611 l 1260 390 l 958 390 l 958 242 l 1363 242 l 1363 0 l 646 0 l 646 188 l 386 188 l 308 0 l 10 0 m 808 1258 l 1088 1258 l 944 1051 l 738 1051 m 472 396 l 646 396 l 646 751 l 621 751 "},"Ć":{"ha":1061,"x_min":0,"x_max":0,"o":"m 567 -18 b 39 490 208 -18 39 186 l 39 501 b 553 1008 39 808 260 1008 b 1025 617 821 1008 1001 886 l 700 617 b 554 760 690 708 642 760 b 371 503 440 760 371 671 l 371 492 b 560 235 371 326 438 235 b 724 381 649 235 713 281 l 1038 381 b 567 -18 1021 119 829 -18 m 506 1258 l 785 1258 l 642 1051 l 435 1051 "},"Č":{"ha":1061,"x_min":0,"x_max":0,"o":"m 278 1258 l 475 1258 l 550 1193 l 625 1258 l 818 1258 l 658 1051 l 431 1051 m 567 -18 b 39 490 208 -18 39 186 l 39 501 b 553 1008 39 808 260 1008 b 1025 617 821 1008 1001 886 l 700 617 b 554 760 690 708 642 760 b 371 503 440 760 371 671 l 371 492 b 560 235 371 326 438 235 b 724 381 649 235 713 281 l 1038 381 b 567 -18 1021 119 829 -18 "},"Ĉ":{"ha":1061,"x_min":0,"x_max":0,"o":"m 439 1258 l 667 1258 l 819 1051 l 622 1051 l 547 1117 l 472 1051 l 279 1051 m 567 -18 b 39 490 208 -18 39 186 l 39 501 b 553 1008 39 808 260 1008 b 1025 617 821 1008 1001 886 l 700 617 b 554 760 690 708 642 760 b 371 503 440 760 371 671 l 371 492 b 560 235 371 326 438 235 b 724 381 649 235 713 281 l 1038 381 b 567 -18 1021 119 829 -18 "},"Ċ":{"ha":1061,"x_min":0,"x_max":0,"o":"m 567 -18 b 39 490 208 -18 39 186 l 39 501 b 553 1008 39 808 260 1008 b 1025 617 821 1008 1001 886 l 700 617 b 554 760 690 708 642 760 b 371 503 440 760 371 671 l 371 492 b 560 235 371 326 438 235 b 724 381 649 235 713 281 l 1038 381 b 567 -18 1021 119 829 -18 m 550 1044 b 407 1176 468 1044 407 1101 b 550 1310 407 1253 468 1310 b 692 1176 631 1310 692 1253 b 550 1044 692 1101 631 1044 "},"Ď":{"ha":1043,"x_min":0,"x_max":0,"o":"m 200 1258 l 397 1258 l 472 1193 l 547 1258 l 740 1258 l 581 1051 l 353 1051 m 458 242 b 678 492 613 242 678 318 l 678 503 b 457 751 678 685 610 751 l 406 751 l 406 242 m 90 993 l 469 993 b 1006 508 825 993 1006 824 l 1006 499 b 469 0 1006 182 819 0 l 90 0 "},"Ĕ":{"ha":861,"x_min":0,"x_max":0,"o":"m 90 993 l 796 993 l 796 751 l 404 751 l 404 611 l 715 611 l 715 390 l 404 390 l 404 242 l 818 242 l 818 0 l 90 0 m 451 1040 b 214 1258 307 1040 222 1121 l 386 1258 b 451 1200 389 1222 413 1200 b 517 1258 488 1200 513 1224 l 689 1258 b 451 1040 679 1121 589 1040 "},"Ě":{"ha":861,"x_min":0,"x_max":0,"o":"m 182 1258 l 379 1258 l 454 1193 l 529 1258 l 722 1258 l 563 1051 l 335 1051 m 90 993 l 796 993 l 796 751 l 404 751 l 404 611 l 715 611 l 715 390 l 404 390 l 404 242 l 818 242 l 818 0 l 90 0 "},"Ė":{"ha":861,"x_min":0,"x_max":0,"o":"m 454 1044 b 311 1176 372 1044 311 1101 b 454 1310 311 1253 372 1310 b 596 1176 535 1310 596 1253 b 454 1044 596 1101 535 1044 m 90 993 l 796 993 l 796 751 l 404 751 l 404 611 l 715 611 l 715 390 l 404 390 l 404 242 l 818 242 l 818 0 l 90 0 "},"Ē":{"ha":861,"x_min":0,"x_max":0,"o":"m 90 993 l 796 993 l 796 751 l 404 751 l 404 611 l 715 611 l 715 390 l 404 390 l 404 242 l 818 242 l 818 0 l 90 0 m 222 1228 l 685 1228 l 685 1068 l 222 1068 "},"Ę":{"ha":861,"x_min":0,"x_max":0,"o":"m 653 -253 b 479 -139 544 -253 479 -208 b 599 0 479 -71 542 -29 l 90 0 l 90 993 l 796 993 l 796 751 l 404 751 l 404 611 l 715 611 l 715 390 l 404 390 l 404 242 l 818 242 l 818 0 l 763 0 b 713 -76 729 -29 713 -50 b 751 -110 713 -97 726 -110 b 788 -104 767 -110 776 -108 l 788 -229 b 653 -253 763 -242 717 -253 "},"Ğ":{"ha":1099,"x_min":0,"x_max":0,"o":"m 565 -18 b 38 490 222 -18 38 192 l 38 501 b 565 1008 38 806 264 1008 b 1038 633 807 1008 1021 899 l 726 633 b 567 761 715 715 664 761 b 365 496 442 761 365 664 l 365 485 b 575 221 365 339 414 221 b 754 347 700 221 747 282 l 585 347 l 585 554 l 1061 554 l 1061 426 b 565 -18 1061 179 899 -18 m 563 1040 b 325 1258 418 1040 333 1121 l 497 1258 b 563 1200 500 1222 524 1200 b 628 1258 599 1200 624 1224 l 800 1258 b 563 1040 790 1121 700 1040 "},"Ĝ":{"ha":1099,"x_min":0,"x_max":0,"o":"m 565 -18 b 38 490 222 -18 38 192 l 38 501 b 565 1008 38 806 264 1008 b 1038 633 807 1008 1021 899 l 726 633 b 567 761 715 715 664 761 b 365 496 442 761 365 664 l 365 485 b 575 221 365 339 414 221 b 754 347 700 221 747 282 l 585 347 l 585 554 l 1061 554 l 1061 426 b 565 -18 1061 179 899 -18 m 451 1258 l 679 1258 l 832 1051 l 635 1051 l 560 1117 l 485 1051 l 292 1051 "},"Ģ":{"ha":1097,"x_min":0,"x_max":0,"o":"m 565 -18 b 38 490 222 -18 38 192 l 38 501 b 565 1008 38 806 264 1008 b 1038 633 807 1008 1021 899 l 726 633 b 567 761 715 715 664 761 b 365 496 442 761 365 664 l 365 485 b 575 221 365 339 414 221 b 754 347 700 221 747 282 l 585 347 l 585 554 l 1061 554 l 1061 426 b 565 -18 1061 179 899 -18 m 393 -286 l 447 -43 l 686 -60 l 546 -324 "},"Ġ":{"ha":1099,"x_min":0,"x_max":0,"o":"m 565 -18 b 38 490 222 -18 38 192 l 38 501 b 565 1008 38 806 264 1008 b 1038 633 807 1008 1021 899 l 726 633 b 567 761 715 715 664 761 b 365 496 442 761 365 664 l 365 485 b 575 221 365 339 414 221 b 754 347 700 221 747 282 l 585 347 l 585 554 l 1061 554 l 1061 426 b 565 -18 1061 179 899 -18 m 563 1044 b 419 1176 481 1044 419 1101 b 563 1310 419 1253 481 1310 b 704 1176 643 1310 704 1253 b 563 1044 704 1101 643 1044 "},"Ħ":{"ha":1103,"x_min":0,"x_max":0,"o":"m 10 871 l 90 871 l 90 993 l 406 993 l 406 871 l 697 871 l 697 993 l 1013 993 l 1013 871 l 1093 871 l 1093 731 l 1013 731 l 1013 0 l 697 0 l 697 382 l 406 382 l 406 0 l 90 0 l 90 731 l 10 731 m 697 626 l 697 731 l 406 731 l 406 626 "},"Ĥ":{"ha":1103,"x_min":0,"x_max":0,"o":"m 90 993 l 406 993 l 406 626 l 697 626 l 697 993 l 1013 993 l 1013 0 l 697 0 l 697 382 l 406 382 l 406 0 l 90 0 m 439 1258 l 667 1258 l 819 1051 l 622 1051 l 547 1117 l 472 1051 l 279 1051 "},"İ":{"ha":508,"x_min":0,"x_max":0,"o":"m 94 993 l 413 993 l 413 0 l 94 0 m 256 1044 b 113 1176 174 1044 113 1101 b 256 1310 113 1253 174 1310 b 397 1176 336 1310 397 1253 b 256 1044 397 1101 336 1044 "},"Ĭ":{"ha":508,"x_min":0,"x_max":0,"o":"m 94 993 l 413 993 l 413 0 l 94 0 m 254 1040 b 17 1258 110 1040 25 1121 l 189 1258 b 254 1200 192 1222 215 1200 b 319 1258 290 1200 315 1224 l 492 1258 b 254 1040 482 1121 392 1040 "},"Ī":{"ha":508,"x_min":0,"x_max":0,"o":"m 94 993 l 413 993 l 413 0 l 94 0 m 22 1228 l 485 1228 l 485 1068 l 22 1068 "},"Į":{"ha":508,"x_min":0,"x_max":0,"o":"m 285 -253 b 108 -139 175 -253 108 -208 b 229 0 108 -71 171 -29 l 94 0 l 94 993 l 413 993 l 413 18 b 343 -76 369 -14 343 -46 b 382 -110 343 -97 357 -110 b 417 -104 397 -110 407 -108 l 417 -229 b 285 -253 393 -242 347 -253 "},"Ĩ":{"ha":508,"x_min":0,"x_max":0,"o":"m 94 993 l 413 993 l 413 0 l 94 0 m 346 1049 b 178 1093 265 1049 221 1093 b 136 1051 156 1093 140 1076 l -15 1051 b 160 1274 -6 1206 71 1274 b 332 1229 236 1274 285 1229 b 372 1271 356 1229 368 1246 l 525 1271 b 346 1049 514 1117 432 1049 "},"Ĵ":{"ha":679,"x_min":0,"x_max":0,"o":"m 332 1258 l 560 1258 l 713 1051 l 515 1051 l 440 1117 l 365 1051 l 172 1051 m 233 -12 b 44 22 136 -12 86 1 l 44 254 b 163 236 76 244 108 236 b 288 365 236 236 288 268 l 288 993 l 603 993 l 603 364 b 233 -12 603 118 482 -12 "},"Ķ":{"ha":1035,"x_min":0,"x_max":0,"o":"m 90 993 l 406 993 l 406 617 l 681 993 l 1007 993 l 658 535 l 1026 0 l 664 0 l 406 397 l 406 0 l 90 0 m 361 -286 l 415 -43 l 654 -60 l 514 -324 "},"Ĺ":{"ha":808,"x_min":0,"x_max":0,"o":"m 208 1258 l 488 1258 l 344 1051 l 138 1051 m 90 993 l 406 993 l 406 243 l 767 243 l 767 0 l 90 0 "},"Ľ":{"ha":808,"x_min":0,"x_max":0,"o":"m 511 993 l 731 993 l 646 743 l 490 743 m 90 993 l 406 993 l 406 243 l 767 243 l 767 0 l 90 0 "},"Ļ":{"ha":808,"x_min":0,"x_max":0,"o":"m 254 -286 l 308 -43 l 547 -60 l 407 -324 m 90 993 l 406 993 l 406 243 l 767 243 l 767 0 l 90 0 "},"Ŀ":{"ha":851,"x_min":0,"x_max":0,"o":"m 90 993 l 406 993 l 406 243 l 767 243 l 767 0 l 90 0 m 678 413 b 525 561 590 413 525 478 b 678 711 525 644 590 711 b 833 561 767 711 833 644 b 678 413 833 478 767 413 "},"Ń":{"ha":1093,"x_min":0,"x_max":0,"o":"m 529 1258 l 808 1258 l 665 1051 l 458 1051 m 90 993 l 443 993 l 725 468 l 725 993 l 1001 993 l 1001 0 l 700 0 l 368 594 l 368 0 l 90 0 "},"Ň":{"ha":1093,"x_min":0,"x_max":0,"o":"m 301 1258 l 499 1258 l 574 1193 l 649 1258 l 842 1258 l 682 1051 l 454 1051 m 90 993 l 443 993 l 725 468 l 725 993 l 1001 993 l 1001 0 l 700 0 l 368 594 l 368 0 l 90 0 "},"Ņ":{"ha":1093,"x_min":0,"x_max":0,"o":"m 374 -286 l 428 -43 l 667 -60 l 526 -324 m 90 993 l 443 993 l 725 468 l 725 993 l 1001 993 l 1001 0 l 700 0 l 368 594 l 368 0 l 90 0 "},"Ŏ":{"ha":1139,"x_min":0,"x_max":0,"o":"m 568 1040 b 331 1258 424 1040 339 1121 l 503 1258 b 568 1200 506 1222 529 1200 b 633 1258 604 1200 629 1224 l 806 1258 b 568 1040 796 1121 706 1040 m 571 229 b 774 492 694 229 774 326 l 774 503 b 568 763 774 671 693 763 b 367 503 446 763 367 672 l 367 492 b 571 229 367 322 446 229 m 563 -18 b 38 490 238 -18 38 189 l 38 501 b 568 1008 38 808 271 1008 b 1101 510 874 1008 1101 824 l 1101 499 b 563 -18 1101 189 889 -18 "},"Ő":{"ha":1139,"x_min":0,"x_max":0,"o":"m 378 1258 l 604 1258 l 500 1051 l 319 1051 m 657 1258 l 885 1258 l 781 1051 l 600 1051 m 571 229 b 774 492 694 229 774 326 l 774 503 b 568 763 774 671 693 763 b 367 503 446 763 367 672 l 367 492 b 571 229 367 322 446 229 m 563 -18 b 38 490 238 -18 38 189 l 38 501 b 568 1008 38 808 271 1008 b 1101 510 874 1008 1101 824 l 1101 499 b 563 -18 1101 189 889 -18 "},"Ō":{"ha":1139,"x_min":0,"x_max":0,"o":"m 336 1228 l 799 1228 l 799 1068 l 336 1068 m 571 229 b 774 492 694 229 774 326 l 774 503 b 568 763 774 671 693 763 b 367 503 446 763 367 672 l 367 492 b 571 229 367 322 446 229 m 563 -18 b 38 490 238 -18 38 189 l 38 501 b 568 1008 38 808 271 1008 b 1101 510 874 1008 1101 824 l 1101 499 b 563 -18 1101 189 889 -18 "},"Ǿ":{"ha":1139,"x_min":0,"x_max":0,"o":"m 47 32 l 156 146 b 38 490 79 233 38 353 l 38 501 b 568 1007 38 808 271 1007 b 889 921 690 1007 800 976 l 990 1029 l 1069 951 l 975 851 b 1103 510 1056 768 1103 653 l 1103 499 b 563 -18 1103 189 890 -18 b 239 72 433 -18 324 14 l 126 -46 m 569 229 b 776 493 697 229 776 326 l 776 504 b 760 624 776 550 771 589 l 433 279 b 569 229 468 246 514 229 m 363 492 b 376 379 363 449 367 411 l 697 719 b 568 763 663 747 619 763 b 363 503 443 763 363 674 l 363 492 m 524 1258 l 803 1258 l 660 1051 l 453 1051 "},"Ŕ":{"ha":986,"x_min":0,"x_max":0,"o":"m 431 1258 l 710 1258 l 567 1051 l 360 1051 m 90 993 l 496 993 b 911 671 769 993 911 883 l 911 665 b 743 406 911 528 842 450 l 969 0 l 639 0 l 454 340 l 404 340 l 404 0 l 90 0 m 478 543 b 607 651 565 543 607 579 l 607 657 b 479 757 607 729 564 757 l 404 757 l 404 543 "},"Ř":{"ha":986,"x_min":0,"x_max":0,"o":"m 203 1258 l 400 1258 l 475 1193 l 550 1258 l 743 1258 l 583 1051 l 356 1051 m 90 993 l 496 993 b 911 671 769 993 911 883 l 911 665 b 743 406 911 528 842 450 l 969 0 l 639 0 l 454 340 l 404 340 l 404 0 l 90 0 m 478 543 b 607 651 565 543 607 579 l 607 657 b 479 757 607 729 564 757 l 404 757 l 404 543 "},"Ŗ":{"ha":986,"x_min":0,"x_max":0,"o":"m 354 -286 l 408 -43 l 647 -60 l 507 -324 m 90 993 l 496 993 b 911 671 769 993 911 883 l 911 665 b 743 406 911 528 842 450 l 969 0 l 639 0 l 454 340 l 404 340 l 404 0 l 90 0 m 478 543 b 607 651 565 543 607 579 l 607 657 b 479 757 607 729 564 757 l 404 757 l 404 543 "},"Ś":{"ha":907,"x_min":0,"x_max":0,"o":"m 464 -18 b 26 318 183 -18 33 94 l 325 318 b 464 204 331 256 361 204 b 574 286 538 204 574 238 b 432 371 574 339 539 356 b 49 690 146 403 49 486 b 446 1007 49 874 199 1007 b 846 690 692 1007 829 907 l 554 690 b 446 786 547 751 513 786 b 347 714 381 786 347 757 b 486 631 347 667 376 644 b 875 319 736 604 875 540 b 464 -18 875 135 731 -18 m 406 1258 l 685 1258 l 542 1051 l 335 1051 "},"Ş":{"ha":907,"x_min":0,"x_max":0,"o":"m 426 -317 b 243 -186 322 -317 257 -271 l 368 -186 b 417 -222 372 -204 386 -222 b 458 -182 443 -222 458 -206 b 413 -140 458 -158 443 -140 b 368 -157 390 -140 376 -147 l 313 -100 l 369 -12 b 26 318 150 10 32 121 l 325 318 b 464 204 331 256 361 204 b 574 286 538 204 574 238 b 432 371 574 339 539 356 b 49 690 146 403 49 486 b 446 1007 49 874 199 1007 b 846 690 692 1007 829 907 l 554 690 b 446 786 547 751 513 786 b 347 714 381 786 347 757 b 486 631 347 667 376 644 b 875 319 736 604 875 540 b 472 -18 875 136 733 -14 l 442 -61 b 600 -182 525 -53 600 -90 b 426 -317 600 -267 532 -317 "},"Ŝ":{"ha":907,"x_min":0,"x_max":0,"o":"m 339 1258 l 567 1258 l 719 1051 l 522 1051 l 447 1117 l 372 1051 l 179 1051 m 464 -18 b 26 318 183 -18 33 94 l 325 318 b 464 204 331 256 361 204 b 574 286 538 204 574 238 b 432 371 574 339 539 356 b 49 690 146 403 49 486 b 446 1007 49 874 199 1007 b 846 690 692 1007 829 907 l 554 690 b 446 786 547 751 513 786 b 347 714 381 786 347 757 b 486 631 347 667 376 644 b 875 319 736 604 875 540 b 464 -18 875 135 731 -18 "},"Ș":{"ha":910,"x_min":0,"x_max":0,"o":"m 281 -286 l 335 -43 l 574 -60 l 433 -324 m 464 -18 b 26 318 183 -18 33 94 l 325 318 b 464 204 331 256 361 204 b 574 286 538 204 574 238 b 432 371 574 339 539 356 b 49 690 146 403 49 486 b 446 1007 49 874 199 1007 b 846 690 692 1007 829 907 l 554 690 b 446 786 547 751 513 786 b 347 714 381 786 347 757 b 486 631 347 667 376 644 b 875 319 736 604 875 540 b 464 -18 875 135 731 -18 "},"Ť":{"ha":874,"x_min":0,"x_max":0,"o":"m 163 1258 l 360 1258 l 435 1193 l 510 1258 l 703 1258 l 543 1051 l 315 1051 m 278 751 l 28 751 l 28 993 l 846 993 l 846 751 l 594 751 l 594 0 l 278 0 "},"Ţ":{"ha":874,"x_min":0,"x_max":0,"o":"m 265 -286 l 319 -43 l 558 -60 l 418 -324 m 278 751 l 28 751 l 28 993 l 846 993 l 846 751 l 594 751 l 594 0 l 278 0 "},"Ŧ":{"ha":874,"x_min":0,"x_max":0,"o":"m 108 567 l 278 567 l 278 751 l 28 751 l 28 993 l 846 993 l 846 751 l 594 751 l 594 567 l 765 567 l 765 372 l 594 372 l 594 0 l 278 0 l 278 372 l 108 372 "},"Ŭ":{"ha":1078,"x_min":0,"x_max":0,"o":"m 539 -18 b 85 410 249 -18 85 126 l 85 993 l 399 993 l 399 422 b 539 229 399 293 426 229 b 678 424 650 229 678 293 l 678 993 l 994 993 l 994 413 b 539 -18 994 114 817 -18 m 536 1040 b 299 1258 392 1040 307 1121 l 471 1258 b 536 1200 474 1222 497 1200 b 601 1258 572 1200 597 1224 l 774 1258 b 536 1040 764 1121 674 1040 "},"Ű":{"ha":1078,"x_min":0,"x_max":0,"o":"m 346 1258 l 572 1258 l 468 1051 l 288 1051 m 625 1258 l 853 1258 l 749 1051 l 568 1051 m 539 -18 b 85 410 249 -18 85 126 l 85 993 l 399 993 l 399 422 b 539 229 399 293 426 229 b 678 424 650 229 678 293 l 678 993 l 994 993 l 994 413 b 539 -18 994 114 817 -18 "},"Ū":{"ha":1078,"x_min":0,"x_max":0,"o":"m 539 -18 b 85 410 249 -18 85 126 l 85 993 l 399 993 l 399 422 b 539 229 399 293 426 229 b 678 424 650 229 678 293 l 678 993 l 994 993 l 994 413 b 539 -18 994 114 817 -18 m 304 1228 l 767 1228 l 767 1068 l 304 1068 "},"Ų":{"ha":1078,"x_min":0,"x_max":0,"o":"m 592 -253 b 421 -142 488 -253 421 -210 b 510 -17 421 -85 464 -46 b 85 410 238 -7 85 135 l 85 993 l 399 993 l 399 422 b 539 229 399 293 426 229 b 678 424 650 229 678 293 l 678 993 l 994 993 l 994 413 b 775 24 994 210 911 86 b 654 -75 713 -4 654 -26 b 694 -110 654 -99 669 -110 b 729 -104 710 -110 719 -108 l 729 -229 b 592 -253 706 -242 660 -253 "},"Ů":{"ha":1078,"x_min":0,"x_max":0,"o":"m 539 -18 b 85 410 249 -18 85 126 l 85 993 l 399 993 l 399 422 b 539 229 399 293 426 229 b 678 424 650 229 678 293 l 678 993 l 994 993 l 994 413 b 539 -18 994 114 817 -18 m 536 1097 b 599 1167 572 1097 599 1126 b 536 1235 599 1207 572 1235 b 474 1167 499 1235 474 1207 b 536 1097 474 1126 499 1097 m 536 1003 b 367 1167 443 1003 367 1076 b 536 1331 367 1257 443 1331 b 706 1167 629 1331 706 1257 b 536 1003 706 1076 629 1003 "},"Ũ":{"ha":1078,"x_min":0,"x_max":0,"o":"m 539 -18 b 85 410 249 -18 85 126 l 85 993 l 399 993 l 399 422 b 539 229 399 293 426 229 b 678 424 650 229 678 293 l 678 993 l 994 993 l 994 413 b 539 -18 994 114 817 -18 m 628 1049 b 460 1093 547 1049 503 1093 b 418 1051 438 1093 422 1076 l 267 1051 b 442 1274 276 1206 353 1274 b 614 1229 518 1274 567 1229 b 654 1271 638 1229 650 1246 l 807 1271 b 628 1049 796 1117 714 1049 "},"Ẃ":{"ha":1401,"x_min":0,"x_max":0,"o":"m 664 1258 l 943 1258 l 800 1051 l 593 1051 m 14 993 l 332 993 l 446 400 l 565 993 l 839 993 l 974 393 l 1094 993 l 1386 993 l 1156 0 l 838 0 l 699 593 l 558 0 l 244 0 "},"Ŵ":{"ha":1401,"x_min":0,"x_max":0,"o":"m 590 1258 l 818 1258 l 971 1051 l 774 1051 l 699 1117 l 624 1051 l 431 1051 m 14 993 l 332 993 l 446 400 l 565 993 l 839 993 l 974 393 l 1094 993 l 1386 993 l 1156 0 l 838 0 l 699 593 l 558 0 l 244 0 "},"Ẅ":{"ha":1401,"x_min":0,"x_max":0,"o":"m 546 1044 b 419 1168 475 1044 419 1100 b 546 1292 419 1238 475 1292 b 674 1168 617 1292 674 1238 b 546 1044 674 1100 617 1044 m 861 1044 b 735 1168 790 1044 735 1100 b 861 1292 735 1238 790 1292 b 989 1168 932 1292 989 1238 b 861 1044 989 1100 932 1044 m 14 993 l 332 993 l 446 400 l 565 993 l 839 993 l 974 393 l 1094 993 l 1386 993 l 1156 0 l 838 0 l 699 593 l 558 0 l 244 0 "},"Ẁ":{"ha":1401,"x_min":0,"x_max":0,"o":"m 472 1258 l 753 1258 l 818 1051 l 611 1051 m 14 993 l 332 993 l 446 400 l 565 993 l 839 993 l 974 393 l 1094 993 l 1386 993 l 1156 0 l 838 0 l 699 593 l 558 0 l 244 0 "},"Ŷ":{"ha":961,"x_min":0,"x_max":0,"o":"m 329 424 l 7 993 l 349 993 l 500 682 l 653 993 l 954 993 l 646 425 l 646 0 l 329 0 m 379 1258 l 607 1258 l 760 1051 l 563 1051 l 488 1117 l 413 1051 l 219 1051 "},"Ỳ":{"ha":961,"x_min":0,"x_max":0,"o":"m 329 424 l 7 993 l 349 993 l 500 682 l 653 993 l 954 993 l 646 425 l 646 0 l 329 0 m 261 1258 l 542 1258 l 607 1051 l 400 1051 "},"Ź":{"ha":871,"x_min":0,"x_max":0,"o":"m 400 1258 l 679 1258 l 536 1051 l 329 1051 m 14 33 l 411 757 l 69 757 l 69 993 l 851 993 l 851 960 l 458 238 l 828 238 l 828 0 l 14 0 "},"Ż":{"ha":871,"x_min":0,"x_max":0,"o":"m 14 33 l 411 757 l 69 757 l 69 993 l 851 993 l 851 960 l 458 238 l 828 238 l 828 0 l 14 0 m 446 1044 b 303 1176 364 1044 303 1101 b 446 1310 303 1253 364 1310 b 588 1176 526 1310 588 1253 b 446 1044 588 1101 526 1044 "},"ă":{"ha":813,"x_min":0,"x_max":0,"o":"m 275 -18 b 28 201 144 -18 28 46 b 418 439 28 372 167 439 l 481 439 l 481 451 b 396 557 481 513 469 557 b 310 479 333 557 314 517 l 54 479 b 413 747 65 657 204 747 b 751 469 624 747 751 661 l 751 0 l 488 0 l 488 83 b 275 -18 457 33 393 -18 m 374 165 b 481 254 436 165 481 200 l 481 292 l 422 292 b 297 222 331 292 297 274 b 374 165 297 188 324 165 m 410 807 b 175 1033 269 807 182 886 l 340 1033 b 410 971 343 994 367 971 b 481 1033 450 971 476 994 l 644 1033 b 410 807 636 886 543 807 "},"ā":{"ha":813,"x_min":0,"x_max":0,"o":"m 275 -18 b 28 201 144 -18 28 46 b 418 439 28 372 167 439 l 481 439 l 481 451 b 396 557 481 513 469 557 b 310 479 333 557 314 517 l 54 479 b 413 747 65 657 204 747 b 751 469 624 747 751 661 l 751 0 l 488 0 l 488 83 b 275 -18 457 33 393 -18 m 374 165 b 481 254 436 165 481 200 l 481 292 l 422 292 b 297 222 331 292 297 274 b 374 165 297 188 324 165 m 190 989 l 629 989 l 629 840 l 190 840 "},"ą":{"ha":813,"x_min":0,"x_max":0,"o":"m 625 -253 b 460 -140 524 -253 460 -211 b 582 0 460 -68 522 -28 l 488 0 l 488 83 b 275 -18 457 33 393 -18 b 28 201 144 -18 28 46 b 418 439 28 372 167 439 l 481 439 l 481 451 b 396 557 481 513 469 557 b 310 479 333 557 314 517 l 54 479 b 413 747 65 657 204 747 b 751 469 624 747 751 661 l 751 17 b 679 -82 699 -24 679 -54 b 719 -118 679 -107 694 -118 b 756 -112 735 -118 744 -117 l 756 -229 b 625 -253 731 -242 690 -253 m 374 165 b 481 254 436 165 481 200 l 481 292 l 422 292 b 297 222 331 292 297 274 b 374 165 297 188 324 165 "},"ǻ":{"ha":813,"x_min":0,"x_max":0,"o":"m 275 -18 b 28 201 144 -18 28 46 b 418 439 28 372 167 439 l 481 439 l 481 451 b 396 557 481 513 469 557 b 310 479 333 557 314 517 l 54 479 b 413 747 65 657 204 747 b 751 469 624 747 751 661 l 751 0 l 488 0 l 488 83 b 275 -18 457 33 393 -18 m 374 165 b 481 254 436 165 481 200 l 481 292 l 422 292 b 297 222 331 292 297 274 b 374 165 297 188 324 165 m 410 886 b 471 953 446 886 471 914 b 410 1021 471 993 446 1021 b 349 953 374 1021 349 993 b 410 886 349 914 374 886 m 410 792 b 243 953 318 792 243 864 b 410 1115 243 1042 318 1115 b 576 953 501 1115 576 1042 b 410 792 576 864 501 792 m 383 1358 l 663 1358 l 519 1151 l 313 1151 "},"ǽ":{"ha":1268,"x_min":0,"x_max":0,"o":"m 869 -18 b 583 104 739 -18 643 24 b 301 -18 526 29 443 -18 b 26 201 151 -18 26 46 b 415 443 26 372 164 443 l 483 443 l 483 451 b 396 557 483 514 468 557 b 308 479 333 557 314 524 l 53 479 b 406 747 64 657 204 747 b 636 668 515 747 590 722 b 865 747 694 719 774 747 b 1239 369 1068 747 1239 632 l 1239 304 l 743 304 b 874 168 750 215 796 168 b 986 246 950 168 978 204 l 1239 246 b 869 -18 1218 79 1093 -18 m 626 1038 l 894 1038 l 750 803 l 554 803 m 976 443 b 865 571 972 524 938 571 b 744 443 799 571 753 526 m 374 165 b 483 254 442 165 483 200 l 483 300 l 419 300 b 296 229 335 300 296 282 b 374 165 296 188 324 165 "},"ć":{"ha":814,"x_min":0,"x_max":0,"o":"m 383 1038 l 651 1038 l 507 803 l 311 803 m 417 -18 b 31 353 199 -18 31 106 l 31 364 b 424 746 31 611 206 746 b 788 440 606 746 774 668 l 531 440 b 431 536 522 499 497 536 b 308 369 350 536 308 481 l 308 358 b 435 181 308 240 347 181 b 546 290 497 181 539 219 l 792 290 b 417 -18 785 103 661 -18 "},"č":{"ha":814,"x_min":0,"x_max":0,"o":"m 150 1036 l 340 1036 l 418 964 l 496 1036 l 682 1036 l 508 806 l 317 806 m 417 -18 b 31 353 199 -18 31 106 l 31 364 b 424 746 31 611 206 746 b 788 440 606 746 774 668 l 531 440 b 431 536 522 499 497 536 b 308 369 350 536 308 481 l 308 358 b 435 181 308 240 347 181 b 546 290 497 181 539 219 l 792 290 b 417 -18 785 103 661 -18 "},"ĉ":{"ha":814,"x_min":0,"x_max":0,"o":"m 324 1036 l 515 1036 l 682 806 l 492 806 l 414 879 l 336 806 l 150 806 m 417 -18 b 31 353 199 -18 31 106 l 31 364 b 424 746 31 611 206 746 b 788 440 606 746 774 668 l 531 440 b 431 536 522 499 497 536 b 308 369 350 536 308 481 l 308 358 b 435 181 308 240 347 181 b 546 290 497 181 539 219 l 792 290 b 417 -18 785 103 661 -18 "},"ċ":{"ha":814,"x_min":0,"x_max":0,"o":"m 417 -18 b 31 353 199 -18 31 106 l 31 364 b 424 746 31 611 206 746 b 788 440 606 746 774 668 l 531 440 b 431 536 522 499 497 536 b 308 369 350 536 308 481 l 308 358 b 435 181 308 240 347 181 b 546 290 497 181 539 219 l 792 290 b 417 -18 785 103 661 -18 m 421 792 b 278 924 338 792 278 847 b 421 1057 278 1000 338 1057 b 564 924 501 1057 564 1000 b 421 792 564 847 501 792 "},"ď":{"ha":896,"x_min":0,"x_max":0,"o":"m 889 1042 l 1083 1042 l 1014 799 l 878 799 m 335 -18 b 32 356 171 -18 32 100 l 32 367 b 335 746 32 619 169 746 b 557 626 449 746 517 700 l 557 1042 l 831 1042 l 831 0 l 557 0 l 557 117 b 335 -18 521 42 444 -18 m 436 190 b 564 361 518 190 564 249 l 564 372 b 438 543 564 482 519 543 b 310 371 354 543 310 488 l 310 360 b 436 190 310 247 356 190 "},"ĕ":{"ha":839,"x_min":0,"x_max":0,"o":"m 432 -18 b 29 354 200 -18 29 114 l 29 365 b 432 747 29 601 210 747 b 810 369 636 747 810 631 l 810 303 l 306 303 b 442 168 313 215 364 168 b 556 246 518 168 547 204 l 811 246 b 432 -18 789 79 663 -18 m 546 446 b 432 571 543 524 506 571 b 307 446 365 571 318 528 m 418 807 b 183 1033 278 807 190 886 l 349 1033 b 418 971 351 994 375 971 b 489 1033 458 971 485 994 l 653 1033 b 418 807 644 886 551 807 "},"ě":{"ha":839,"x_min":0,"x_max":0,"o":"m 158 1036 l 349 1036 l 426 964 l 504 1036 l 690 1036 l 517 806 l 325 806 m 432 -18 b 29 354 200 -18 29 114 l 29 365 b 432 747 29 601 210 747 b 810 369 636 747 810 631 l 810 303 l 306 303 b 442 168 313 215 364 168 b 556 246 518 168 547 204 l 811 246 b 432 -18 789 79 663 -18 m 546 446 b 432 571 543 524 506 571 b 307 446 365 571 318 528 "},"ė":{"ha":839,"x_min":0,"x_max":0,"o":"m 432 -18 b 29 354 200 -18 29 114 l 29 365 b 432 747 29 601 210 747 b 810 369 636 747 810 631 l 810 303 l 306 303 b 442 168 313 215 364 168 b 556 246 518 168 547 204 l 811 246 b 432 -18 789 79 663 -18 m 546 446 b 432 571 543 524 506 571 b 307 446 365 571 318 528 m 426 792 b 283 924 343 792 283 847 b 426 1057 283 1000 343 1057 b 569 924 507 1057 569 1000 b 426 792 569 847 507 792 "},"ē":{"ha":839,"x_min":0,"x_max":0,"o":"m 432 -18 b 29 354 200 -18 29 114 l 29 365 b 432 747 29 601 210 747 b 810 369 636 747 810 631 l 810 303 l 306 303 b 442 168 313 215 364 168 b 556 246 518 168 547 204 l 811 246 b 432 -18 789 79 663 -18 m 546 446 b 432 571 543 524 506 571 b 307 446 365 571 318 528 m 206 989 l 644 989 l 644 840 l 206 840 "},"ę":{"ha":839,"x_min":0,"x_max":0,"o":"m 567 -253 b 399 -143 465 -253 399 -212 b 517 -11 399 -85 460 -44 b 432 -18 493 -15 457 -18 b 29 354 200 -18 29 114 l 29 365 b 432 747 29 601 210 747 b 810 369 636 747 810 631 l 810 303 l 306 303 b 442 168 313 215 364 168 b 556 246 518 168 547 204 l 811 246 b 717 60 800 156 756 100 b 618 -82 657 -1 618 -40 b 658 -118 618 -107 633 -118 b 694 -112 674 -118 683 -117 l 694 -229 b 567 -253 669 -242 636 -253 m 546 446 b 432 571 543 524 506 571 b 307 446 365 571 318 528 "},"ğ":{"ha":894,"x_min":0,"x_max":0,"o":"m 415 -269 b 26 6 164 -269 46 -167 l 297 6 b 417 -81 307 -39 332 -81 b 556 58 521 -81 556 -19 l 556 171 b 335 43 519 101 443 43 b 31 388 169 43 31 163 l 31 399 b 333 747 31 617 168 747 b 556 626 447 747 515 700 l 556 726 l 829 726 l 829 63 b 415 -269 829 -154 686 -269 m 436 238 b 564 388 517 238 564 296 l 564 397 b 436 544 564 486 518 544 b 308 396 353 544 308 488 l 308 385 b 436 238 308 296 353 238 m 426 807 b 192 1033 286 807 199 886 l 357 1033 b 426 971 360 994 383 971 b 497 1033 467 971 493 994 l 661 1033 b 426 807 653 886 560 807 "},"ĝ":{"ha":894,"x_min":0,"x_max":0,"o":"m 333 1036 l 525 1036 l 692 806 l 501 806 l 424 879 l 346 806 l 160 806 m 415 -269 b 26 6 164 -269 46 -167 l 297 6 b 417 -81 307 -39 332 -81 b 556 58 521 -81 556 -19 l 556 171 b 335 43 519 101 443 43 b 31 388 169 43 31 163 l 31 399 b 333 747 31 617 168 747 b 556 626 447 747 515 700 l 556 726 l 829 726 l 829 63 b 415 -269 829 -154 686 -269 m 436 238 b 564 388 517 238 564 296 l 564 397 b 436 544 564 486 518 544 b 308 396 353 544 308 488 l 308 385 b 436 238 308 296 353 238 "},"ģ":{"ha":894,"x_min":0,"x_max":0,"o":"m 315 801 l 456 1065 l 608 1028 l 554 785 m 415 -269 b 26 6 164 -269 46 -167 l 297 6 b 417 -81 307 -39 332 -81 b 556 58 521 -81 556 -19 l 556 171 b 335 43 519 101 443 43 b 31 388 169 43 31 163 l 31 399 b 333 747 31 617 168 747 b 556 626 447 747 515 700 l 556 726 l 829 726 l 829 63 b 415 -269 829 -154 686 -269 m 436 238 b 564 388 517 238 564 296 l 564 397 b 436 544 564 486 518 544 b 308 396 353 544 308 488 l 308 385 b 436 238 308 296 353 238 "},"ġ":{"ha":894,"x_min":0,"x_max":0,"o":"m 415 -269 b 26 6 164 -269 46 -167 l 297 6 b 417 -81 307 -39 332 -81 b 556 58 521 -81 556 -19 l 556 171 b 335 43 519 101 443 43 b 31 388 169 43 31 163 l 31 399 b 333 747 31 617 168 747 b 556 626 447 747 515 700 l 556 726 l 829 726 l 829 63 b 415 -269 829 -154 686 -269 m 436 238 b 564 388 517 238 564 296 l 564 397 b 436 544 564 486 518 544 b 308 396 353 544 308 488 l 308 385 b 436 238 308 296 353 238 m 428 792 b 285 924 344 792 285 847 b 428 1057 285 1000 344 1057 b 571 924 508 1057 571 1000 b 428 792 571 847 508 792 "},"ħ":{"ha":874,"x_min":0,"x_max":0,"o":"m -8 950 l 65 950 l 65 1042 l 339 1042 l 339 950 l 549 950 l 549 807 l 339 807 l 339 610 b 579 746 379 686 457 746 b 813 478 717 746 813 658 l 813 0 l 539 0 l 539 417 b 447 528 539 490 513 528 b 339 401 379 528 339 488 l 339 0 l 65 0 l 65 807 l -8 807 "},"ĥ":{"ha":874,"x_min":0,"x_max":0,"o":"m 65 1042 l 339 1042 l 339 610 b 579 746 379 686 457 746 b 813 478 717 746 813 658 l 813 0 l 539 0 l 539 417 b 447 528 539 490 513 528 b 339 401 379 528 339 488 l 339 0 l 65 0 m 331 1289 l 558 1289 l 711 1082 l 514 1082 l 439 1147 l 364 1082 l 171 1082 "},"ĭ":{"ha":421,"x_min":0,"x_max":0,"o":"m 74 726 l 346 726 l 346 0 l 74 0 m 211 807 b -24 1033 71 807 -17 886 l 142 1033 b 211 971 144 994 168 971 b 282 1033 251 971 278 994 l 446 1033 b 211 807 438 886 344 807 "},"ī":{"ha":421,"x_min":0,"x_max":0,"o":"m 33 989 l 388 989 l 388 840 l 33 840 m 74 726 l 346 726 l 346 0 l 74 0 "},"į":{"ha":421,"x_min":0,"x_max":0,"o":"m 224 -253 b 58 -139 122 -253 58 -210 b 179 0 58 -68 119 -28 l 74 0 l 74 726 l 346 726 l 346 14 b 278 -82 294 -26 278 -54 b 318 -118 278 -106 293 -118 b 353 -112 333 -118 343 -117 l 353 -229 b 224 -253 329 -242 292 -253 m 210 781 b 61 918 125 781 61 839 b 210 1057 61 999 125 1057 b 357 918 293 1057 357 999 b 210 781 357 839 293 781 "},"ĩ":{"ha":421,"x_min":0,"x_max":0,"o":"m 74 726 l 346 726 l 346 0 l 74 0 m 303 807 b 139 851 221 807 181 851 b 97 810 117 851 100 833 l -47 810 b 117 1035 -39 963 28 1035 b 285 990 193 1035 239 990 b 326 1033 310 990 322 1007 l 471 1033 b 303 807 461 879 389 807 "},"ĵ":{"ha":421,"x_min":0,"x_max":0,"o":"m -12 -58 b 72 22 46 -56 72 -33 l 72 726 l 346 726 l 346 15 b -12 -254 346 -146 269 -254 m 117 1036 l 308 1036 l 475 806 l 285 806 l 207 879 l 129 806 l -57 806 "},"ķ":{"ha":818,"x_min":0,"x_max":0,"o":"m 65 1042 l 339 1042 l 339 451 l 515 726 l 796 726 l 572 401 l 814 0 l 511 0 l 339 303 l 339 0 l 65 0 m 257 -286 l 311 -43 l 550 -60 l 410 -324 "},"ĺ":{"ha":417,"x_min":0,"x_max":0,"o":"m 169 1289 l 449 1289 l 306 1082 l 99 1082 m 72 1042 l 344 1042 l 344 0 l 72 0 "},"ľ":{"ha":417,"x_min":0,"x_max":0,"o":"m 404 1042 l 599 1042 l 529 799 l 393 799 m 72 1042 l 344 1042 l 344 0 l 72 0 "},"ļ":{"ha":417,"x_min":0,"x_max":0,"o":"m 40 -286 l 94 -43 l 333 -60 l 193 -324 m 72 1042 l 344 1042 l 344 0 l 72 0 "},"ŀ":{"ha":665,"x_min":0,"x_max":0,"o":"m 72 1042 l 344 1042 l 344 0 l 72 0 m 538 349 b 385 497 450 349 385 414 b 538 647 385 581 450 647 b 693 497 626 647 693 581 b 538 349 693 414 626 349 "},"ń":{"ha":874,"x_min":0,"x_max":0,"o":"m 406 1038 l 674 1038 l 529 803 l 333 803 m 65 726 l 339 726 l 339 610 b 579 746 379 686 457 746 b 813 478 717 746 813 658 l 813 0 l 539 0 l 539 417 b 447 528 539 490 513 528 b 339 401 379 528 339 488 l 339 0 l 65 0 "},"ŉ":{"ha":1068,"x_min":0,"x_max":0,"o":"m -39 638 l 69 1011 l 307 935 l 113 579 m 258 726 l 532 726 l 532 610 b 772 746 572 686 650 746 b 1006 478 910 746 1006 658 l 1006 0 l 732 0 l 732 417 b 640 528 732 490 706 528 b 532 401 572 528 532 488 l 532 0 l 258 0 "},"ň":{"ha":874,"x_min":0,"x_max":0,"o":"m 171 1036 l 361 1036 l 439 964 l 517 1036 l 703 1036 l 529 806 l 338 806 m 65 726 l 339 726 l 339 610 b 579 746 379 686 457 746 b 813 478 717 746 813 658 l 813 0 l 539 0 l 539 417 b 447 528 539 490 513 528 b 339 401 379 528 339 488 l 339 0 l 65 0 "},"ņ":{"ha":874,"x_min":0,"x_max":0,"o":"m 268 -286 l 322 -43 l 561 -60 l 421 -324 m 65 726 l 339 726 l 339 610 b 579 746 379 686 457 746 b 813 478 717 746 813 658 l 813 0 l 539 0 l 539 417 b 447 528 539 490 513 528 b 339 401 379 528 339 488 l 339 0 l 65 0 "},"ŏ":{"ha":869,"x_min":0,"x_max":0,"o":"m 436 183 b 561 360 519 183 561 244 l 561 369 b 436 544 561 483 521 544 b 307 374 353 544 307 488 l 307 363 b 436 183 307 244 349 183 m 435 -18 b 31 354 208 -18 31 115 l 31 365 b 436 746 31 601 207 746 b 839 372 663 746 839 606 l 839 361 b 435 -18 839 122 661 -18 m 433 807 b 199 1033 293 807 206 886 l 364 1033 b 433 971 367 994 390 971 b 504 1033 474 971 500 994 l 668 1033 b 433 807 660 886 567 807 "},"ő":{"ha":869,"x_min":0,"x_max":0,"o":"m 271 1038 l 476 1038 l 368 803 l 210 803 m 522 1038 l 728 1038 l 621 803 l 461 803 m 436 183 b 561 360 519 183 561 244 l 561 369 b 436 544 561 483 521 544 b 307 374 353 544 307 488 l 307 363 b 436 183 307 244 349 183 m 435 -18 b 31 354 208 -18 31 115 l 31 365 b 436 746 31 601 207 746 b 839 372 663 746 839 606 l 839 361 b 435 -18 839 122 661 -18 "},"ō":{"ha":869,"x_min":0,"x_max":0,"o":"m 214 989 l 653 989 l 653 840 l 214 840 m 436 183 b 561 360 519 183 561 244 l 561 369 b 436 544 561 483 521 544 b 307 374 353 544 307 488 l 307 363 b 436 183 307 244 349 183 m 435 -18 b 31 354 208 -18 31 115 l 31 365 b 436 746 31 601 207 746 b 839 372 663 746 839 606 l 839 361 b 435 -18 839 122 661 -18 "},"ǿ":{"ha":869,"x_min":0,"x_max":0,"o":"m 31 10 l 119 104 b 29 354 63 167 29 250 l 29 365 b 436 747 29 601 207 747 b 668 688 522 747 603 726 l 758 783 l 828 719 l 742 628 b 839 372 803 565 839 478 l 839 361 b 435 -18 839 122 661 -18 b 194 44 344 -18 261 3 l 101 -54 m 401 1038 l 669 1038 l 525 803 l 329 803 m 436 182 b 565 358 522 182 565 244 l 565 369 b 560 433 565 393 563 414 l 351 211 b 436 182 372 192 400 182 m 304 363 b 308 304 304 342 306 322 l 513 522 b 436 546 492 538 467 546 b 304 374 350 546 304 489 l 304 363 "},"ŕ":{"ha":608,"x_min":0,"x_max":0,"o":"m 301 1038 l 569 1038 l 425 803 l 229 803 m 65 726 l 339 726 l 339 579 b 572 736 385 692 464 738 l 572 481 b 339 335 421 489 339 439 l 339 0 l 65 0 "},"ř":{"ha":608,"x_min":0,"x_max":0,"o":"m 67 1036 l 257 1036 l 335 964 l 413 1036 l 599 1036 l 425 806 l 233 806 m 65 726 l 339 726 l 339 579 b 572 736 385 692 464 738 l 572 481 b 339 335 421 489 339 439 l 339 0 l 65 0 "},"ŗ":{"ha":608,"x_min":0,"x_max":0,"o":"m 39 -286 l 93 -43 l 332 -60 l 192 -324 m 65 726 l 339 726 l 339 579 b 572 736 385 692 464 738 l 572 481 b 339 335 421 489 339 439 l 339 0 l 65 0 "},"ś":{"ha":726,"x_min":0,"x_max":0,"o":"m 328 1038 l 596 1038 l 451 803 l 256 803 m 363 -18 b 21 233 150 -18 25 69 l 271 233 b 361 158 279 186 299 158 b 438 210 414 158 438 179 b 310 271 438 242 407 258 b 28 501 114 293 28 346 b 351 747 28 668 174 747 b 683 507 540 747 667 685 l 438 507 b 356 575 429 550 406 575 b 283 525 306 575 283 553 b 397 469 283 492 317 478 b 704 238 607 444 704 394 b 363 -18 704 58 568 -18 "},"ş":{"ha":726,"x_min":0,"x_max":0,"o":"m 338 -317 b 154 -186 233 -317 168 -271 l 279 -186 b 328 -222 283 -204 297 -222 b 369 -182 354 -222 369 -206 b 324 -140 369 -158 354 -140 b 279 -157 301 -140 288 -147 l 224 -100 l 281 -12 b 21 233 118 7 24 92 l 271 233 b 361 158 279 186 299 158 b 438 210 414 158 438 179 b 310 271 438 242 407 258 b 28 501 114 293 28 346 b 351 747 28 668 174 747 b 683 507 540 747 667 685 l 438 507 b 356 575 429 550 406 575 b 283 525 306 575 283 553 b 397 469 283 492 317 478 b 704 238 607 444 704 394 b 383 -18 704 64 576 -12 l 353 -61 b 511 -182 436 -53 511 -90 b 338 -317 511 -267 443 -317 "},"ŝ":{"ha":726,"x_min":0,"x_max":0,"o":"m 264 1036 l 456 1036 l 622 806 l 432 806 l 354 879 l 276 806 l 90 806 m 363 -18 b 21 233 150 -18 25 69 l 271 233 b 361 158 279 186 299 158 b 438 210 414 158 438 179 b 310 271 438 242 407 258 b 28 501 114 293 28 346 b 351 747 28 668 174 747 b 683 507 540 747 667 685 l 438 507 b 356 575 429 550 406 575 b 283 525 306 575 283 553 b 397 469 283 492 317 478 b 704 238 607 444 704 394 b 363 -18 704 58 568 -18 "},"ș":{"ha":724,"x_min":0,"x_max":0,"o":"m 188 -286 l 242 -43 l 481 -60 l 340 -324 m 360 -18 b 18 233 147 -18 22 69 l 268 233 b 358 158 276 186 296 158 b 435 210 411 158 435 179 b 307 271 435 242 404 258 b 25 501 111 293 25 346 b 349 747 25 668 171 747 b 681 507 538 747 664 685 l 435 507 b 353 575 426 550 403 575 b 281 525 303 575 281 553 b 394 469 281 492 314 478 b 701 238 604 444 701 394 b 360 -18 701 58 565 -18 "},"ŧ":{"ha":550,"x_min":0,"x_max":0,"o":"m 17 460 l 100 460 l 100 543 l 17 543 l 17 726 l 100 726 l 100 875 l 374 875 l 374 726 l 513 726 l 513 543 l 374 543 l 374 460 l 513 460 l 513 326 l 374 326 l 374 268 b 444 197 374 219 399 197 b 511 210 471 197 489 201 l 511 4 b 368 -18 478 -4 428 -18 b 100 243 197 -18 100 61 l 100 326 l 17 326 "},"ť":{"ha":550,"x_min":0,"x_max":0,"o":"m 442 1042 l 636 1042 l 567 799 l 431 799 m 368 -17 b 100 243 197 -17 100 61 l 100 543 l 15 543 l 15 726 l 100 726 l 100 875 l 374 875 l 374 726 l 513 726 l 513 543 l 374 543 l 374 269 b 444 199 374 219 400 199 b 513 210 469 199 489 201 l 513 4 b 368 -17 479 -6 428 -17 "},"ţ":{"ha":550,"x_min":0,"x_max":0,"o":"m 125 -286 l 179 -43 l 418 -60 l 278 -324 m 368 -17 b 100 243 197 -17 100 61 l 100 543 l 15 543 l 15 726 l 100 726 l 100 875 l 374 875 l 374 726 l 513 726 l 513 543 l 374 543 l 374 269 b 444 199 374 219 400 199 b 513 210 469 199 489 201 l 513 4 b 368 -17 479 -6 428 -17 "},"ŭ":{"ha":872,"x_min":0,"x_max":0,"o":"m 303 -18 b 60 250 164 -18 60 69 l 60 726 l 333 726 l 333 297 b 425 186 333 224 361 186 b 533 313 493 186 533 226 l 533 726 l 807 726 l 807 0 l 533 0 l 533 113 b 303 -18 493 35 425 -18 m 433 807 b 199 1033 293 807 206 886 l 364 1033 b 433 971 367 994 390 971 b 504 1033 474 971 500 994 l 668 1033 b 433 807 660 886 567 807 "},"ű":{"ha":872,"x_min":0,"x_max":0,"o":"m 303 -18 b 60 250 164 -18 60 69 l 60 726 l 333 726 l 333 297 b 425 186 333 224 361 186 b 533 313 493 186 533 226 l 533 726 l 807 726 l 807 0 l 533 0 l 533 113 b 303 -18 493 35 425 -18 m 271 1038 l 476 1038 l 368 803 l 210 803 m 522 1038 l 728 1038 l 621 803 l 461 803 "},"ū":{"ha":872,"x_min":0,"x_max":0,"o":"m 303 -18 b 60 250 164 -18 60 69 l 60 726 l 333 726 l 333 297 b 425 186 333 224 361 186 b 533 313 493 186 533 226 l 533 726 l 807 726 l 807 0 l 533 0 l 533 113 b 303 -18 493 35 425 -18 m 214 989 l 653 989 l 653 840 l 214 840 "},"ų":{"ha":872,"x_min":0,"x_max":0,"o":"m 681 -253 b 515 -139 579 -253 515 -210 b 638 0 515 -68 578 -28 l 533 0 l 533 113 b 303 -18 493 35 425 -18 b 60 250 164 -18 60 69 l 60 726 l 333 726 l 333 297 b 425 186 333 224 361 186 b 533 313 493 186 533 226 l 533 726 l 807 726 l 807 18 b 735 -82 754 -24 735 -54 b 776 -118 735 -106 751 -118 b 811 -112 790 -118 801 -117 l 811 -229 b 681 -253 786 -242 746 -253 "},"ů":{"ha":872,"x_min":0,"x_max":0,"o":"m 432 861 b 493 928 468 861 493 889 b 432 996 493 968 468 996 b 371 928 396 996 371 968 b 432 861 371 889 396 861 m 432 767 b 265 928 340 767 265 839 b 432 1090 265 1017 340 1090 b 599 928 524 1090 599 1017 b 432 767 599 839 524 767 m 303 -18 b 60 250 164 -18 60 69 l 60 726 l 333 726 l 333 297 b 425 186 333 224 361 186 b 533 313 493 186 533 226 l 533 726 l 807 726 l 807 0 l 533 0 l 533 113 b 303 -18 493 35 425 -18 "},"ũ":{"ha":872,"x_min":0,"x_max":0,"o":"m 303 -18 b 60 250 164 -18 60 69 l 60 726 l 333 726 l 333 297 b 425 186 333 224 361 186 b 533 313 493 186 533 226 l 533 726 l 807 726 l 807 0 l 533 0 l 533 113 b 303 -18 493 35 425 -18 m 525 807 b 361 851 443 807 403 851 b 319 810 339 851 322 833 l 175 810 b 339 1035 183 963 250 1035 b 507 990 415 1035 461 990 b 549 1033 532 990 544 1007 l 693 1033 b 525 807 683 879 611 807 "},"ẃ":{"ha":1186,"x_min":0,"x_max":0,"o":"m 582 1038 l 850 1038 l 706 803 l 510 803 m 7 726 l 292 726 l 386 319 l 497 726 l 717 726 l 814 319 l 924 726 l 1179 726 l 949 0 l 692 0 l 590 379 l 490 0 l 225 0 "},"ŵ":{"ha":1186,"x_min":0,"x_max":0,"o":"m 499 1036 l 690 1036 l 857 806 l 667 806 l 589 879 l 511 806 l 325 806 m 7 726 l 292 726 l 386 319 l 497 726 l 717 726 l 814 319 l 924 726 l 1179 726 l 949 0 l 692 0 l 590 379 l 490 0 l 225 0 "},"ẅ":{"ha":1186,"x_min":0,"x_max":0,"o":"m 454 792 b 328 915 383 792 328 847 b 454 1039 328 983 383 1039 b 582 915 525 1039 582 983 b 454 792 582 847 525 792 m 756 792 b 631 915 685 792 631 847 b 756 1039 631 983 685 1039 b 883 915 828 1039 883 983 b 756 792 883 847 828 792 m 7 726 l 292 726 l 386 319 l 497 726 l 717 726 l 814 319 l 924 726 l 1179 726 l 949 0 l 692 0 l 590 379 l 490 0 l 225 0 "},"ẁ":{"ha":1186,"x_min":0,"x_max":0,"o":"m 7 726 l 292 726 l 386 319 l 497 726 l 717 726 l 814 319 l 924 726 l 1179 726 l 949 0 l 692 0 l 590 379 l 490 0 l 225 0 m 368 1038 l 636 1038 l 708 803 l 513 803 "},"ŷ":{"ha":833,"x_min":0,"x_max":0,"o":"m 297 72 l 7 726 l 303 726 l 440 364 l 568 726 l 826 726 l 439 -242 l 179 -242 m 336 1036 l 528 1036 l 694 806 l 504 806 l 426 879 l 349 806 l 163 806 "},"ỳ":{"ha":833,"x_min":0,"x_max":0,"o":"m 297 72 l 7 726 l 303 726 l 440 364 l 568 726 l 826 726 l 439 -242 l 179 -242 m 196 1038 l 464 1038 l 536 803 l 340 803 "},"ź":{"ha":713,"x_min":0,"x_max":0,"o":"m 332 1038 l 600 1038 l 456 803 l 260 803 m 11 26 l 308 522 l 43 522 l 43 726 l 697 726 l 697 699 l 386 203 l 678 203 l 678 0 l 11 0 "},"ż":{"ha":713,"x_min":0,"x_max":0,"o":"m 11 26 l 308 522 l 43 522 l 43 726 l 697 726 l 697 699 l 386 203 l 678 203 l 678 0 l 11 0 m 365 792 b 222 924 282 792 222 847 b 365 1057 222 1000 282 1057 b 508 924 446 1057 508 1000 b 365 792 508 847 446 792 "},"ﬀ":{"ha":1015,"x_min":0,"x_max":0,"o":"m 104 543 l 15 543 l 15 726 l 104 726 l 104 772 b 400 1044 104 960 224 1044 b 515 1029 447 1044 483 1038 l 515 832 b 454 842 499 838 481 842 b 378 771 400 842 378 811 l 378 726 l 574 726 l 574 781 b 872 1053 574 968 696 1053 b 990 1038 919 1053 956 1047 l 990 842 b 925 850 974 846 953 850 b 847 779 871 850 847 819 l 847 726 l 989 726 l 989 543 l 847 543 l 847 0 l 574 0 l 574 543 l 378 543 l 378 0 l 104 0 "},"ﬁ":{"ha":957,"x_min":0,"x_max":0,"o":"m 610 726 l 882 726 l 882 0 l 610 0 m 746 781 b 597 918 661 781 597 839 b 746 1057 597 999 661 1057 b 893 918 829 1057 893 999 b 746 781 893 839 829 781 m 104 543 l 15 543 l 15 726 l 104 726 l 104 781 b 403 1053 104 968 225 1053 b 518 1039 450 1053 485 1047 l 518 842 b 456 850 500 847 483 850 b 378 779 401 850 378 819 l 378 726 l 518 726 l 518 543 l 378 543 l 378 0 l 104 0 "},"ﬂ":{"ha":954,"x_min":0,"x_max":0,"o":"m 104 543 l 15 543 l 15 726 l 104 726 l 104 781 b 403 1053 104 968 225 1053 b 518 1039 450 1053 485 1047 l 518 842 b 456 850 500 847 483 850 b 378 779 401 850 378 819 l 378 726 l 518 726 l 518 543 l 378 543 l 378 0 l 104 0 m 608 1042 l 881 1042 l 881 0 l 608 0 "},"⅛":{"ha":1144,"x_min":0,"x_max":0,"o":"m 868 -10 b 619 149 704 -10 619 46 b 717 276 619 204 649 254 b 643 385 671 294 643 328 b 869 538 643 483 742 538 b 1094 385 1001 538 1094 485 b 1021 278 1094 328 1067 296 b 1115 154 1088 257 1115 210 b 868 -10 1115 51 1029 -10 m 868 122 b 921 171 899 122 921 142 b 868 219 921 200 899 219 b 815 171 838 219 815 200 b 868 122 815 142 838 122 m 869 321 b 917 365 894 321 917 339 b 869 411 917 393 894 411 b 821 365 844 411 821 392 b 869 321 821 339 844 321 m 146 800 l 31 738 l 31 899 l 175 993 l 347 993 l 347 463 l 146 463 m 861 993 l 999 993 l 208 0 l 69 0 "},"⅓":{"ha":1151,"x_min":0,"x_max":0,"o":"m 879 -10 b 635 181 704 -10 640 71 l 811 181 b 867 128 814 150 831 128 b 914 169 897 128 914 143 b 857 211 914 197 897 211 l 814 211 l 814 321 l 857 321 b 917 364 899 321 917 336 b 874 401 917 386 903 401 b 821 351 846 401 826 385 l 646 351 b 879 538 654 460 729 538 b 1104 390 1021 538 1104 485 b 1008 276 1104 331 1069 292 b 1115 163 1071 267 1115 224 b 879 -10 1115 60 1039 -10 m 146 800 l 31 738 l 31 899 l 175 993 l 347 993 l 347 463 l 146 463 m 875 993 l 1013 993 l 222 0 l 83 0 "},"⅜":{"ha":1203,"x_min":0,"x_max":0,"o":"m 925 -10 b 676 149 761 -10 676 46 b 774 276 676 204 706 254 b 700 385 728 294 700 328 b 926 538 700 483 799 538 b 1151 385 1058 538 1151 485 b 1078 278 1151 328 1124 296 b 1172 154 1144 257 1172 210 b 925 -10 1172 51 1086 -10 m 925 122 b 978 171 956 122 978 142 b 925 219 978 200 956 219 b 872 171 894 219 872 200 b 925 122 872 142 894 122 m 926 321 b 974 365 951 321 974 339 b 926 411 974 393 951 411 b 878 365 901 411 878 392 b 926 321 878 339 901 321 m 933 993 l 1071 993 l 281 0 l 142 0 m 272 453 b 28 643 97 453 33 533 l 204 643 b 260 590 207 614 224 590 b 307 633 290 590 307 607 b 250 674 307 660 290 674 l 207 674 l 207 783 l 250 783 b 310 826 292 783 310 799 b 267 864 310 850 296 864 b 214 815 239 864 219 847 l 39 815 b 272 1001 47 922 122 1001 b 497 853 414 1001 497 947 b 401 739 497 793 463 754 b 508 625 464 729 508 686 b 272 453 508 524 432 453 "},"⅝":{"ha":1181,"x_min":0,"x_max":0,"o":"m 904 -10 b 656 149 740 -10 656 46 b 753 276 656 204 685 254 b 679 385 707 294 679 328 b 906 538 679 483 778 538 b 1131 385 1038 538 1131 485 b 1057 278 1131 328 1103 296 b 1151 154 1124 257 1151 210 b 904 -10 1151 51 1065 -10 m 904 122 b 957 171 935 122 957 142 b 904 219 957 200 935 219 b 851 171 874 219 851 200 b 904 122 851 142 874 122 m 906 321 b 953 365 931 321 953 339 b 906 411 953 393 931 411 b 857 365 881 411 857 392 b 906 321 857 339 881 321 m 263 453 b 31 633 101 453 32 531 l 213 633 b 257 597 215 613 226 597 b 301 649 285 597 301 618 b 253 697 301 679 285 697 b 204 665 225 697 210 682 l 46 665 l 63 993 l 469 993 l 469 854 l 200 854 l 194 746 b 338 817 217 781 253 817 b 501 653 435 817 501 760 b 263 453 501 529 415 453 m 913 993 l 1050 993 l 260 0 l 121 0 "},"⅔":{"ha":1221,"x_min":0,"x_max":0,"o":"m 949 -10 b 704 181 774 -10 710 71 l 881 181 b 936 128 883 150 900 128 b 983 169 967 128 983 143 b 926 211 983 197 967 211 l 883 211 l 883 321 l 926 321 b 986 364 968 321 986 336 b 943 401 986 386 972 401 b 890 351 915 401 896 385 l 715 351 b 949 538 724 460 799 538 b 1174 390 1090 538 1174 485 b 1078 276 1174 331 1139 292 b 1185 163 1140 267 1185 224 b 949 -10 1185 60 1108 -10 m 10 488 l 189 671 b 286 814 249 732 286 774 b 247 856 286 839 275 856 b 197 785 219 856 203 833 l 15 785 b 258 1001 19 928 113 1001 b 482 829 413 1001 482 925 b 374 642 482 756 436 701 l 335 606 l 485 606 l 485 463 l 10 463 m 965 993 l 1103 993 l 313 0 l 174 0 "},"⅞":{"ha":1138,"x_min":0,"x_max":0,"o":"m 861 -10 b 613 149 697 -10 613 46 b 710 276 613 204 642 254 b 636 385 664 294 636 328 b 863 538 636 483 735 538 b 1088 385 994 538 1088 485 b 1014 278 1088 328 1060 296 b 1108 154 1081 257 1108 210 b 861 -10 1108 51 1022 -10 m 861 122 b 914 171 892 122 914 142 b 861 219 914 200 892 219 b 808 171 831 219 808 200 b 861 122 808 142 831 122 m 863 321 b 910 365 888 321 910 339 b 863 411 910 393 888 411 b 814 365 838 411 814 392 b 863 321 814 339 838 321 m 235 836 l 31 836 l 31 993 l 486 993 l 486 974 l 293 463 l 93 463 m 842 993 l 979 993 l 189 0 l 50 0 "},"Ⓟ":{"ha":1169,"x_min":0,"x_max":0,"o":"m 381 781 l 610 781 b 844 586 776 781 844 706 l 844 583 b 621 397 844 464 769 397 l 568 397 l 568 218 l 381 218 m 599 522 b 668 583 644 522 668 543 l 668 586 b 600 640 668 624 644 640 l 568 640 l 568 522 m 583 43 b 1032 499 831 43 1032 226 b 586 950 1032 767 836 950 b 138 496 333 950 138 765 b 583 43 138 224 340 43 m 583 -29 b 47 496 286 -29 47 197 b 586 1022 47 790 285 1022 b 1124 499 892 1022 1124 792 b 583 -29 1124 199 885 -29 "},"″":{"ha":664,"x_min":0,"x_max":0,"o":"m 72 993 l 326 993 l 239 603 l 46 603 m 381 993 l 635 993 l 546 603 l 353 603 "},"′":{"ha":356,"x_min":0,"x_max":0,"o":"m 72 993 l 326 993 l 239 603 l 46 603 "}," ":{"ha":115,"x_min":0,"x_max":0,"o":""}}}
